<svg xmlns="http://www.w3.org/2000/svg" viewBox="0 0 279.99999999999994 188.2684375395135" preserveAspectRatio="xMidYMid meet" class="css-116ckqy" id="dacbgdff"><defs id="SvgjsDefs2040"/><g id="SvgjsG2041" featurekey="symbolFeature-0" transform="matrix(1.2320861663190363,0,0,1.2320861663190363,79.52304695420295,-30.39609457111093)" fill="currentColor"><title xmlns="http://www.w3.org/2000/svg">big4_outline</title><path xmlns="http://www.w3.org/2000/svg" d="M32.41,35.08L13.33,54.17,32.25,73.09a2,2,0,1,1-2.83,2.83L9.09,55.58a2,2,0,0,1,0-2.83l20.5-20.5A2,2,0,0,1,32.41,35.08ZM89.08,52.59L68.75,32.25a2,2,0,0,0-2.83,2.83L84.84,54,65.75,73.09a2,2,0,1,0,2.83,2.83l20.5-20.5A2,2,0,0,0,89.08,52.59ZM61.29,24.83a2,2,0,0,0-2.62,1.05L35.82,79.42A2,2,0,1,0,39.5,81L62.35,27.46A2,2,0,0,0,61.29,24.83Z"/></g><g id="SvgjsG2042" featurekey="nameFeature-0" transform="matrix(1.7530680228507358,0,0,1.7530680228507358,0.07011716826246112,68.13999304890064)" fill="currentColor"><path d="M19.44 27.64 c0 0.16 -0.4 0.36 -0.4 0.44 c0 0.28 0.24 0.04 0.24 0.28 c0 0.12 -0.32 -0.04 -0.32 0.48 c0 1 -0.64 1.8 -0.64 2.04 c0 0.2 0.12 0.4 0.12 0.64 c0 0.08 -1.56 3.28 -1.68 3.44 c-0.12 0.68 -0.88 2.28 -1.56 2.64 c-0.28 0.12 -0.28 1 -1.16 1.2 c-0.32 0.56 -0.56 1.16 -1.2 1.6 c-0.12 0.32 -3 2.84 -3.16 2.84 c-1.68 0.96 -2.92 2 -5.04 2 c-1.36 0 -1.96 -0.52 -3.04 -0.92 c-0.4 0 -1.2 -1.72 -1.32 -2.08 s-0.32 -1.92 -0.32 -2.6 c0 -0.12 0 -0.2 0.04 -0.28 c-0.04 -0.04 -0.04 -0.12 -0.04 -0.24 c0 -0.72 0.48 -2.52 0.64 -2.92 l-0.16 -0.24 c0 -1.64 1 -1.96 1.16 -2.4 l-0.12 -0.24 c0 -0.16 0.56 -0.56 0.64 -0.72 l-0.04 -0.08 c-0.08 0.04 -0.24 0.2 -0.28 0.2 c-0.08 0 -0.12 -0.16 -0.12 -0.16 c0 -1.04 1.36 -1.64 1.36 -2.04 c0 -0.04 -0.72 -3.48 -0.72 -3.52 c0.04 -0.2 0.04 -0.4 0.04 -0.64 l0 -0.64 c0 -0.84 0.36 -1.64 0.36 -2.28 c-0.12 -0.04 -0.16 -0.16 -0.16 -0.28 c0 -0.88 0.8 -1.24 0.84 -2.04 l-0.12 -0.16 c0.08 -0.12 0.32 -0.16 0.32 -0.32 c0 -0.08 -0.16 -0.24 -0.16 -0.4 c0.36 -0.56 1.2 -2.56 1.64 -2.84 c0.72 -1 1.8 -2.92 3.32 -2.92 c0.56 0 1 -0.32 1.6 -0.32 c0.64 0 1.28 -0.16 1.92 -0.16 c1.72 0 2.4 0.16 3.84 0.96 c0.6 0.32 2.68 1.72 2.88 2.32 c0.28 0.24 0.28 0.84 0.64 0.88 c0.16 0.32 0.52 1.08 0.52 1.48 c0 0.52 0.32 1 0.36 1.44 c0 0.36 0.08 1.4 0.08 2.04 c0 0.2 0 0.36 -0.04 0.48 c0.04 0.16 0.08 0.32 0.08 0.48 c0 1.16 -0.92 2.6 -0.92 3.2 c0 0.08 0.08 0.28 0.08 0.36 z M5.36 26.68 l0.2 -0.4 c0.16 0 0.16 -0.12 0.16 -0.24 c0 -0.08 -0.08 -0.2 -0.08 -0.32 c0 -0.4 0.88 -1.52 1.12 -1.84 c0.2 -0.24 0.32 -0.44 0.52 -0.6 l0.12 -0.16 s0.96 -1.08 0.96 -1.24 c0.56 -1.16 1.76 -1.8 3.16 -1.8 c0.52 0 1.16 0.68 1.16 1.16 c0 1 -0.36 0.84 -1.04 1.24 l-0.28 0 c-0.36 0 -0.96 0.8 -1.08 1.12 c-0.08 0.48 -0.52 0.48 -0.64 0.8 c-0.44 1.04 -1.72 1.96 -2 2.8 c-0.56 0.72 -1.04 2.16 -1.2 2.4 c-0.52 0.52 -0.84 1.08 -1.12 1.68 c0.04 1.04 1.28 1.12 2.16 1.12 l0.24 0 c0.32 0 0.68 0 1 -0.16 c0.08 0.08 0.2 0.12 0.36 0.12 c0.08 0 0.16 -0.12 0.28 -0.12 s0.24 0.12 0.32 0.16 c-0.64 0.36 -1.32 0.48 -2.08 0.48 c-1.16 0 -2 -0.4 -2.68 -0.4 c-0.24 0 -0.96 1.48 -0.96 1.72 c-0.12 0.24 -0.2 0.44 -0.36 0.6 l0.04 0.12 c0 0.76 -0.56 1.28 -0.64 1.96 c-0.24 1.36 -0.68 2.72 -0.68 4.08 c0 0.56 0.36 2.24 0.76 2.64 l0 0.08 c0.16 0.12 0.36 0.2 0.52 0.2 c1.68 0 3.28 -1 4.44 -2 c0.44 -0.36 1 -0.6 1.36 -0.96 c0.52 -1.16 1.92 -1.64 2.4 -2.68 c0.24 -0.56 1.32 -0.88 1.32 -1.56 c0.56 -1.28 2.44 -3.16 2.44 -3.12 l-0.04 -0.04 c0 -0.36 0.72 -0.36 0.72 -0.64 c0.04 -0.16 1.48 -2.52 1.6 -2.52 l-0.08 -0.2 c0.08 -0.08 0.32 -0.76 0.36 -0.8 l0.08 -0.16 l-0.04 -0.16 c0.04 -0.16 0.24 -0.32 0.4 -0.32 c0.08 -0.6 0.52 -1.12 0.52 -1.68 l-0.04 -0.16 c-1.16 0 -0.92 0.56 -1.36 1.2 c-0.16 0.08 -0.44 1.12 -0.52 1.28 l0.08 0.16 c0 0.8 -1.04 1.44 -1.48 2 c0 -0.04 1.24 -3.64 1.4 -4 c0.72 -1.72 1.04 -3.32 1.04 -5.2 c0 -2.28 -0.72 -4.96 -2.92 -6.32 c-0.88 -0.56 -1.92 -1.28 -3.04 -1.28 c-0.36 0 -1.08 0.52 -1.4 0.72 c-0.6 0.4 -1.28 0.52 -1.88 0.96 c-2.2 1.6 -4.44 5.6 -4.44 8.24 c0 0.36 -0.2 0.76 -0.24 1.12 c0.08 0.24 0.16 0.48 0.16 0.72 c0 0.32 -0.2 0.64 -0.2 0.96 c0 0.16 0 0.6 0.2 0.6 c0.4 0 0.8 -1.08 0.92 -1.36 z M13.52 38.48 c0.48 -0.16 0.68 -0.56 0.84 -0.96 l-0.2 -0.12 c-0.32 0 -0.92 0.64 -1.12 0.84 l0 0.24 c0 0.44 -0.6 0.32 -0.6 0.76 c0 0.04 0.04 0.12 0.16 0.2 c0.32 -0.16 0.96 -0.8 1.04 -0.8 c0 0 -0.08 -0.12 -0.12 -0.16 z M17.96 31.68 c0.12 -0.08 0.24 -0.24 0.32 -0.36 l-0.24 -0.04 c-0.32 0.4 -0.16 0.84 -0.72 1 c-0.04 0.04 -0.04 0.12 -0.04 0.16 l0 0.12 c0.04 0.04 0.16 0.12 0.2 0.16 c0.28 -0.16 0.4 -0.72 0.48 -1.04 z M17.4 33.04 l-0.2 0 c-0.16 0 -0.4 0.04 -0.4 0.24 c0.16 0.08 0.2 0.16 0.32 0.16 c0.08 -0.08 0.2 -0.24 0.28 -0.4 z M18.4 25.52 l0 0.24 c0 -0.12 0.08 -0.32 0.16 -0.4 l0 -0.12 c-0.08 0.12 -0.12 0.2 -0.16 0.28 z M16 33.84 l-0.12 0.4 l-0.12 0.04 c0.36 0 0.2 -0.24 0.32 -0.4 z M4.12 19.48 c-0.12 0.04 -0.2 0.04 -0.2 0.16 c0 0.04 0.16 0.04 0.16 0.04 c0 -0.08 0.04 -0.12 0.04 -0.2 z M19.08 22 l0.08 -0.04 c-0.08 -0.08 0 -0.16 -0.16 -0.16 l-0.04 0.04 c0 0.04 0.08 0.12 0.12 0.16 z M4.36 19.04 l-0.04 0.08 l0 0.08 l0.08 -0.08 s-0.04 -0.04 -0.04 -0.08 z M14.88 37.04 l-0.08 0.04 l0.04 0.08 c0.04 0 0.08 -0.04 0.08 -0.08 s-0.04 -0.04 -0.04 -0.04 z M16.84 33.72 l-0.08 0.04 l0.12 0 z M15.76 31.560000000000002 l-0.04 0 l0.04 -0.04 l0 0.04 z M4.12 19.48 l0.08 0 l-0.08 0 l0 0 z M28.28 15.280000000000001 c0 0.52 -0.84 1.44 -0.84 1.92 c-0.88 1.52 -1.84 4.92 -2.24 6.68 c-0.12 0.52 -0.52 1.2 -0.56 1.68 c0 0.28 -0.2 1.96 -0.52 1.96 c-0.12 0 -0.12 -0.08 -0.12 -0.08 l-0.12 0.12 c0 0.12 0.12 0.12 0.2 0.2 c-0.12 0.52 -0.68 2.08 -0.68 2.64 c0 0.04 0 0.08 0.04 0.12 c-0.12 0.36 -0.2 0.44 -0.2 0.72 c0 0.08 0 0.2 0.04 0.36 l-0.24 0.24 c0 0.12 0.04 0.24 0.04 0.4 c0 0.6 -0.64 2.68 -0.64 3.48 c0 0.12 0 0.2 0.04 0.24 c-0.24 0.2 -0.28 0.56 -0.28 0.88 l0 0.36 c0 0.8 0.04 2.36 0.36 2.84 c0.08 0.16 0.24 0.12 0.32 0.2 c0.16 0.2 0.48 0.8 0.8 0.8 c0.8 0 2 -1.64 2.4 -1.76 l0.04 0.16 c-0.64 1.44 -1.04 2.4 -3.24 2.4 c-2.4 0 -2.96 -2.28 -2.96 -3.64 c0 -0.32 0.04 -0.64 0.04 -0.96 c0 -0.28 -0.04 -0.56 -0.04 -0.84 c0 -0.24 0.28 -0.64 0.32 -0.88 c0.08 -1 0.28 -1.92 0.48 -2.92 l-0.04 -0.04 c0.52 -1.68 1.08 -3.84 1.08 -4.16 c0 -0.6 1.12 -3.64 1.28 -4.68 c0.2 -0.96 0.32 -2.04 0.68 -2.96 c0.44 -1.08 0.68 -0.56 0.96 -2.24 l-0.08 -0.08 c0.12 -0.76 0.44 -1.52 0.72 -2.2 c0.88 -0.6 0.28 -1.92 2.16 -1.92 c0.6 0 0.8 0.48 0.8 0.96 z M21 36.24 l0.08 -0.32 l0.04 0 s-0.04 -0.08 -0.04 -0.12 c0 -1 0.6 -3.88 0.88 -5 l-0.16 0.16 l-0.04 0 c0.04 -0.68 0.52 -1.4 0.72 -2.04 c0.48 -1.8 0.84 -3.56 1.52 -5.32 c0.36 -0.96 0.88 -1.92 1.2 -2.88 c-0.2 0.08 -1.8 3.72 -1.84 4.16 c-0.04 0 -0.04 -0.12 -0.04 -0.16 c0 -0.88 2.12 -5.32 2.44 -7.68 l-0.08 -0.08 c-0.12 0.24 -0.64 1.12 -0.64 1.28 l0.04 0 c-1 2.64 -1.56 5.36 -2.48 8 c-0.12 0.32 -0.2 0.56 -0.24 0.88 c-0.12 0.64 -1.44 5.48 -1.44 5.84 l0 0.04 c-0.44 1.24 -0.68 2.52 -0.68 3.84 c0 0.52 0 1 0.08 1.52 c0 0.04 -0.04 0.12 -0.04 0.12 c0 0.16 0.04 0.28 0.04 0.4 l0.08 -0.2 c0 -0.04 -0.04 -0.08 -0.04 -0.16 c0 -0.36 0.12 -0.76 0.16 -1.12 c0 0.52 0 1.08 0.16 1.56 c0.08 -0.12 0.24 -0.44 0.24 -0.56 c0 -0.2 -0.12 -0.36 -0.12 -0.56 c0 -0.32 0.28 -0.32 0.28 -0.52 c0 -0.16 -0.2 0.04 -0.2 -0.24 c0.2 -0.16 0.2 -0.44 0.32 -0.68 l-0.08 -0.24 z M22.04 37.24 c0 -0.08 0 -0.12 -0.12 -0.16 l-0.24 0.32 c-0.04 0 -0.12 -0.04 -0.12 -0.08 c-0.2 0 -0.2 0.36 -0.2 0.56 c0 0.12 0 0.24 0 0.2 c0 0.2 0.12 1 0.44 1 c0.12 0 0.12 -0.12 0.12 -0.16 c-0.08 -0.08 -0.08 -0.2 -0.08 -0.28 l0 -0.32 l-0.12 0.04 c-0.08 -0.04 -0.12 -0.12 -0.12 -0.2 s0.36 -0.84 0.44 -0.92 z M21.92 36.88 l0.16 -0.6 l-0.04 -0.12 c0.04 -0.04 0.04 -0.08 0.04 -0.16 l-0.16 0 c0 -0.16 0.16 -0.2 0.16 -0.28 s-0.24 -0.16 -0.24 -0.52 c-0.16 0 -0.24 0.76 -0.28 0.88 l0 0.36 c0 0.28 0 0.6 0.08 0.6 l0.08 -0.04 c0 -0.12 -0.04 -0.24 -0.08 -0.32 l0.08 -0.08 c0.12 0 0.08 0.16 0.2 0.28 z M22.08 33.44 l0.16 -0.04 l0 0.12 c0 0.16 -0.24 0.28 -0.28 0.44 l0.04 0.16 c-0.08 0.04 -0.08 0.12 -0.08 0.2 l0.08 0.12 c0.44 -0.4 0.6 -1.04 0.6 -1.4 c0 -0.12 -0.2 -0.16 -0.36 -0.16 c0 0.16 -0.08 0.36 -0.16 0.56 z M22.68 27.16 l0.12 0.04 c-0.12 0.32 -0.56 2.04 -0.76 2.2 c0.16 -0.8 0.32 -1.48 0.64 -2.24 z M25.52 18.6 c-0.28 0.08 -0.52 1.16 -0.64 1.44 c0.2 -0.28 0.64 -1.16 0.64 -1.44 z M23 29.92 l0.2 0.08 c0.12 -0.04 0.12 -0.08 0.12 -0.2 s0 -0.28 -0.08 -0.32 c-0.12 0.04 -0.12 0.32 -0.24 0.44 z M23.52 26 c-0.08 0.24 -0.08 0.52 -0.2 0.72 l0.04 0.08 c0.12 -0.16 0.2 -0.32 0.32 -0.48 c-0.16 -0.12 -0.16 -0.16 -0.16 -0.32 z M21.2 33.2 c0 -0.32 0 -1 0.36 -1.24 c-0.2 0.36 -0.32 0.88 -0.36 1.24 z M22.64 29.04 l0.12 0.04 c0.08 -0.12 0.16 -0.32 0.24 -0.4 c-0.08 -0.12 -0.04 -0.24 -0.12 -0.32 c-0.08 0.2 -0.12 0.48 -0.24 0.68 z M22.8 31.28 l-0.04 0 l0.04 -0.16 l0 -0.04 c-0.2 0.08 -0.32 0.32 -0.36 0.48 l0.04 0.08 c0.12 -0.08 0.2 -0.2 0.32 -0.36 z M21.2 35.36 l0.04 0.16 c0.12 -0.08 0.2 -0.24 0.2 -0.4 c0 0 0 -0.12 -0.08 -0.12 c-0.12 0.12 -0.16 0.24 -0.16 0.36 z M21.16 33.44 l0.04 0.16 c-0.04 0.12 -0.12 0.24 -0.16 0.36 c0 0.04 0.04 0.08 0.04 0.16 c0 0.04 -0.04 0.08 -0.04 0.08 c-0.04 -0.04 -0.04 -0.12 -0.04 -0.2 c0 -0.12 0.04 -0.48 0.16 -0.56 z M24 24.439999999999998 c-0.12 0 -0.16 0.32 -0.16 0.4 c0 0.04 0.04 0.12 0.12 0.16 l0.16 -0.08 c-0.12 0 -0.12 -0.2 -0.12 -0.32 l0 -0.16 z M23.4 28.92 l-0.04 -0.16 c-0.12 0 -0.24 0.24 -0.24 0.32 c0.16 0 0.24 -0.04 0.28 -0.16 z M22.12 32.64 l-0.04 -0.04 c-0.12 0.08 -0.16 0.2 -0.16 0.32 c0.08 0 0.16 -0.2 0.2 -0.28 z M22.08 33.44 l-0.08 0 c-0.08 0 -0.24 0 -0.28 0.08 c0.04 0 0.2 0.08 0.24 0.08 c0.12 0 0.08 -0.08 0.12 -0.16 z M23.12 30.560000000000002 l0.08 -0.04 l-0.08 -0.24 l-0.16 0.2 c0 0.08 0.08 0.08 0.12 0.08 l0.04 0 z M21.759999999999998 34.92 l0.16 0.12 l0.08 -0.24 l-0.04 -0.04 z M22.240000000000002 34.72 l-0.16 0.12 l0 0.04 c0 0.04 0.04 0.08 0.12 0.08 l0.16 -0.16 z M22.12 34.480000000000004 l0.08 0.12 l0.08 -0.12 l-0.08 -0.16 z M24.32 23.52 l-0.2 0.4 l0.04 0 c0.08 0 0.16 -0.32 0.16 -0.4 z M23.52 28.32 l-0.08 -0.08 c-0.04 0 -0.08 0.08 -0.12 0.12 l0.16 0.04 z M23.88 25.2 l-0.04 0 c-0.08 0 -0.12 0.04 -0.12 0.16 l0.04 0 c0.08 0 0.08 -0.08 0.12 -0.16 z M23.28 25.32 l-0.04 -0.16 l0.08 -0.12 c0 0.04 -0.04 0.24 -0.04 0.28 z M21.2 38.52 l-0.08 0.08 l0.08 0.04 l0.08 0 z M22.48 29.92 l0.08 -0.08 l-0.08 -0.08 c-0.04 0.04 -0.04 0.08 -0.04 0.08 z M22.8 26.759999999999998 c0 0.04 0 0.16 -0.12 0.2 l-0.04 0 c0.04 -0.08 0.12 -0.16 0.16 -0.2 z M22.8 32.2 l-0.04 -0.16 l0 0.2 z M21.92 32.44 l-0.12 0.12 l0.04 0.04 c0.08 0 0.08 -0.04 0.08 -0.04 l0 -0.12 z M22.240000000000002 40.96 l-0.04 -0.08 c-0.04 0.04 -0.12 0.04 -0.12 0.12 l0.08 0.04 z M21.92 38 l-0.08 -0.08 l-0.08 0.12 c0.04 0 0.16 -0.04 0.16 -0.04 z M23.759999999999998 26.08 l0.04 -0.08 l0 -0.04 l-0.12 0.04 z M22.8 31.6 l0.08 0 l-0.08 -0.04 l0 0.04 z M22.48 32.32 c-0.04 0 -0.04 0 -0.04 0.08 l0 0 c0.04 0 0.04 -0.04 0.04 -0.08 z M23.44 28 c0.04 0 0.04 0.04 0.04 0.08 l0.08 -0.04 c-0.04 -0.04 -0.08 -0.04 -0.12 -0.04 z M22.84 30.32 c0.04 0.04 0.04 0.04 0.08 0.04 c0 -0.04 0 -0.04 0.04 -0.04 l-0.12 0 z M21.64 39.56 c-0.04 0.04 -0.04 0.04 -0.04 0.08 l0.04 0 l-0.04 0 c0 -0.04 0.04 -0.04 0.04 -0.08 z M20.6 37.04 c0 0.16 0 0.24 -0.08 0.36 c0.08 -0.12 0.08 -0.2 0.08 -0.36 z M22.96 30.96 l0 0.04 l0.04 -0.04 l-0.04 0 l0 0 z M21.56 39.32 c0 0.04 0 0.04 0.04 0.04 l0.04 -0.04 c-0.04 0 -0.04 0 -0.04 -0.04 c-0.04 0 -0.04 0 -0.04 0.04 z M23.759999999999998 27.119999999999997 l-0.04 0 c0.04 0 0.04 0 0.04 0.04 c0.04 0 0.04 0 0.04 -0.04 l-0.04 0 z M23.12 29.32 l0 -0.04 c-0.04 0.04 -0.04 0.04 -0.04 0.08 l0.04 -0.04 l0 0 z M21.8 33.84 l-0.04 0 l0 0.04 c0.04 0 0.04 0 0.04 -0.04 z M23.12 27.6 l0 0.08 l0 -0.08 z M20.92 36.76 l0 -0.04 l0.08 0 c0 0.04 0 0 -0.08 0.04 z M21.92 40.28 l-0.08 0.08 c0.08 0 0.08 -0.04 0.08 -0.04 l0 0 l-0.08 0 s0.08 0 0.08 -0.04 z M30.84 32.76 l-0.04 -0.04 c0.28 -0.16 0.56 -0.48 0.68 -0.8 l-0.04 -0.04 c0.04 -0.36 0.52 -0.8 0.8 -1.04 l-0.04 -0.08 l0.04 -0.08 l0.08 0.08 l0.2 -0.28 l-0.08 -0.08 l0.12 -0.12 c0 -0.56 1.28 -1.88 1.76 -2.2 l0 0 c0.16 -0.04 0.32 -0.12 0.48 -0.12 l0.04 0.04 c0.16 0 0.24 -0.2 0.44 -0.2 l0 0.04 c0.08 -0.08 0.24 -0.16 0.44 -0.16 l0 0.08 l0.16 -0.08 l0.2 0.04 l0.12 -0.04 c0.04 0.24 0.2 0.2 0.2 0.44 c0 0.2 -0.12 0.48 -0.16 0.68 l0 0.04 c-0.36 0.8 -0.84 1.92 -0.96 2.76 c-0.08 0.8 -0.16 1.72 -0.44 2.44 c0 0.04 0 0.12 -0.08 0.12 c-0.12 0 -0.12 0.44 -0.12 0.52 c0 0.52 -0.16 0.96 -0.16 1.48 c0 0.24 0.08 1.52 0.52 1.52 l0.28 -0.2 c0.12 0 0.04 0.2 0.2 0.2 c0 0.12 -0.12 0.04 -0.16 0.2 c0.04 0.04 0.12 0.08 0.12 0.16 l-0.08 0.2 l0 0.08 c-0.08 0 -0.16 0.12 -0.16 0.16 l0.04 0.04 c0 0.12 -0.16 0.12 -0.24 0.16 l-0.04 -0.08 l-0.2 0.12 l-0.12 0 c-0.12 0 -0.24 0.08 -0.36 0.08 c-0.16 -0.08 -0.24 -0.16 -0.36 -0.16 l-0.04 0.04 c-0.24 -0.04 -0.64 -0.36 -0.8 -0.48 c-0.48 -0.24 -0.52 -0.68 -0.52 -1.16 c0 -0.24 -0.2 -0.48 -0.2 -0.72 c0 -0.4 0.2 -0.88 0.2 -1.36 l-0.04 -0.04 l0.04 -0.12 c0 -0.6 0.16 -0.96 0.16 -1.48 c0 -0.04 -0.08 -0.16 -0.08 -0.2 c-0.04 0.4 -0.8 0.88 -0.92 1.24 c-0.32 0.44 -0.64 0.84 -0.92 1.24 c-1.12 0.8 -0.88 0.92 -1.68 1.64 c-0.28 0.28 -0.64 0.48 -0.96 0.72 l0 -0.04 c-0.68 0 -1.2 0.36 -1.88 0.36 c-0.04 0 -0.24 -0.12 -0.32 -0.12 l-0.16 0.04 c-0.56 -0.64 -0.84 -1.28 -0.84 -2.08 c0 -1 0.32 -2 0.68 -2.96 c0.32 -0.88 0.76 -1.72 1.28 -2.52 c0.16 -0.28 0.36 -0.56 0.52 -0.8 l0.2 -0.32 s0.16 -0.04 0.16 -0.08 l0.52 -1.08 c0 -0.04 0.32 -0.32 0.32 -0.36 c0 -0.16 2.04 -1.64 2.36 -1.84 c0.4 0 0.8 -0.16 1.12 -0.32 c0 0 0.44 -0.2 0.52 -0.2 c0.04 0 0 0 0 0.04 c0.12 -0.04 0.48 -0.12 0.8 -0.12 c0.08 0 0.16 0 0.2 0.04 l-0.04 -0.08 c0.72 0 1.44 0.68 1.88 1.16 c0.04 0.08 0.08 0.12 0.2 0.12 l-0.04 0.04 l0.08 0.12 l0 0.04 l-0.2 -0.04 l-0.08 0.08 c0 0.2 0.28 0.24 0.28 0.36 l-0.2 -0.12 l-0.24 0.08 c0 0.16 0.24 0.2 0.44 0.24 c-0.88 -0.2 -0.96 -0.12 -1.72 -0.6 c-0.28 -0.16 -0.56 -0.6 -0.88 -0.6 c-0.04 0 -0.76 0.2 -0.84 0.24 c0.12 -0.12 0.28 -0.16 0.44 -0.24 c-0.2 0 -1.2 0.48 -1.2 0.68 l0.2 0 c-0.04 0.2 -0.48 0.72 -0.72 0.76 l0.08 0.08 l-0.08 0.04 l0.12 0.12 c-0.28 0.2 -0.68 0.64 -0.68 0.96 c-0.2 0.16 -0.92 1.44 -0.96 1.68 c-0.36 0.2 -0.76 1.08 -0.88 1.48 l0 -0.04 c-0.64 0.72 -1.68 3.52 -1.76 4.56 c0.08 0.08 -0.04 0.16 0.12 0.16 c0.32 -0.36 1 -1 1.52 -1.12 l0.16 0 l0.08 -0.16 l-0.04 0 c0.04 -0.12 0.32 -0.36 0.36 -0.48 l0 0.04 c0 -0.32 0.24 -0.68 0.6 -0.8 l-0.04 0 c0.04 -0.2 0.52 -0.24 0.52 -0.6 l-0.04 -0.04 l0.2 -0.12 l-0.04 0 c0.04 -0.28 0.28 -0.56 0.56 -0.72 z M30.8 27.759999999999998 c0.16 -0.2 0.52 -0.92 0.88 -0.96 c-0.2 0.36 -0.68 0.64 -0.88 1 l0 -0.04 z M31.759999999999998 27.04 l-0.04 -0.04 c0.04 -0.04 0.12 -0.16 0.16 -0.2 l0.08 0.08 c0 0.08 -0.12 0.12 -0.2 0.16 z M32.28 26.64 c-0.08 0.04 -0.16 0.12 -0.28 0.16 l0 0 c0.08 -0.08 0.2 -0.16 0.28 -0.16 z M27.119999999999997 30.560000000000002 c0.04 -0.04 0.08 -0.08 0.08 -0.12 c-0.08 0 -0.08 0.08 -0.08 0.12 z M35.76 27.560000000000002 l-0.08 0 c-0.16 0 -0.28 -0.04 -0.32 -0.08 c0.12 0 0.28 0.08 0.4 0.08 z M28.84 35.44 l0.08 0 l0 -0.04 z M32.24 31.2 l0.08 0 l0.04 -0.04 c-0.04 0 -0.08 0 -0.12 0.04 z M28.84 35.44 l-0.04 0.08 l0 0.04 c0.04 -0.04 0.04 -0.08 0.04 -0.12 z M32.84 34.64 l0 0.08 l0.04 -0.04 z M32.32 30.6 l-0.04 0 l0.04 -0.04 c0.04 0 0.04 0 0.04 -0.04 c0 0.04 0 0.04 -0.04 0.08 z M32.24 30.64 c0 -0.04 0 -0.04 0.04 -0.04 c0 0.04 0 0.04 -0.04 0.04 z M35.72 27.6 l0 0 l0 0 l0 0 z M28.48 35.72 l0.12 -0.04 c-0.04 0.04 -0.04 0.04 -0.12 0.04 z M35.2 27.439999999999998 l0 0.04 l0 -0.04 z M44.8 15.280000000000001 c0 0.52 -0.84 1.44 -0.84 1.92 c-0.88 1.52 -1.84 4.92 -2.24 6.68 c-0.12 0.52 -0.52 1.2 -0.56 1.68 c0 0.28 -0.2 1.96 -0.52 1.96 c-0.12 0 -0.12 -0.08 -0.12 -0.08 l-0.12 0.12 c0 0.12 0.12 0.12 0.2 0.2 c-0.12 0.52 -0.68 2.08 -0.68 2.64 c0 0.04 0 0.08 0.04 0.12 c-0.12 0.36 -0.2 0.44 -0.2 0.72 c0 0.08 0 0.2 0.04 0.36 l-0.24 0.24 c0 0.12 0.04 0.24 0.04 0.4 c0 0.6 -0.64 2.68 -0.64 3.48 c0 0.12 0 0.2 0.04 0.24 c-0.24 0.2 -0.28 0.56 -0.28 0.88 l0 0.36 c0 0.8 0.04 2.36 0.36 2.84 c0.08 0.16 0.24 0.12 0.32 0.2 c0.16 0.2 0.48 0.8 0.8 0.8 c0.8 0 2 -1.64 2.4 -1.76 l0.04 0.16 c-0.64 1.44 -1.04 2.4 -3.24 2.4 c-2.4 0 -2.96 -2.28 -2.96 -3.64 c0 -0.32 0.04 -0.64 0.04 -0.96 c0 -0.28 -0.04 -0.56 -0.04 -0.84 c0 -0.24 0.28 -0.64 0.32 -0.88 c0.08 -1 0.28 -1.92 0.48 -2.92 l-0.04 -0.04 c0.52 -1.68 1.08 -3.84 1.08 -4.16 c0 -0.6 1.12 -3.64 1.28 -4.68 c0.2 -0.96 0.32 -2.04 0.68 -2.96 c0.44 -1.08 0.68 -0.56 0.96 -2.24 l-0.08 -0.08 c0.12 -0.76 0.44 -1.52 0.72 -2.2 c0.88 -0.6 0.28 -1.92 2.16 -1.92 c0.6 0 0.8 0.48 0.8 0.96 z M37.519999999999996 36.24 l0.08 -0.32 l0.04 0 s-0.04 -0.08 -0.04 -0.12 c0 -1 0.6 -3.88 0.88 -5 l-0.16 0.16 l-0.04 0 c0.04 -0.68 0.52 -1.4 0.72 -2.04 c0.48 -1.8 0.84 -3.56 1.52 -5.32 c0.36 -0.96 0.88 -1.92 1.2 -2.88 c-0.2 0.08 -1.8 3.72 -1.84 4.16 c-0.04 0 -0.04 -0.12 -0.04 -0.16 c0 -0.88 2.12 -5.32 2.44 -7.68 l-0.08 -0.08 c-0.12 0.24 -0.64 1.12 -0.64 1.28 l0.04 0 c-1 2.64 -1.56 5.36 -2.48 8 c-0.12 0.32 -0.2 0.56 -0.24 0.88 c-0.12 0.64 -1.44 5.48 -1.44 5.84 l0 0.04 c-0.44 1.24 -0.68 2.52 -0.68 3.84 c0 0.52 0 1 0.08 1.52 c0 0.04 -0.04 0.12 -0.04 0.12 c0 0.16 0.04 0.28 0.04 0.4 l0.08 -0.2 c0 -0.04 -0.04 -0.08 -0.04 -0.16 c0 -0.36 0.12 -0.76 0.16 -1.12 c0 0.52 0 1.08 0.16 1.56 c0.08 -0.12 0.24 -0.44 0.24 -0.56 c0 -0.2 -0.12 -0.36 -0.12 -0.56 c0 -0.32 0.28 -0.32 0.28 -0.52 c0 -0.16 -0.2 0.04 -0.2 -0.24 c0.2 -0.16 0.2 -0.44 0.32 -0.68 l-0.08 -0.24 z M38.559999999999995 37.24 c0 -0.08 0 -0.12 -0.12 -0.16 l-0.24 0.32 c-0.04 0 -0.12 -0.04 -0.12 -0.08 c-0.2 0 -0.2 0.36 -0.2 0.56 c0 0.12 0 0.24 0 0.2 c0 0.2 0.12 1 0.44 1 c0.12 0 0.12 -0.12 0.12 -0.16 c-0.08 -0.08 -0.08 -0.2 -0.08 -0.28 l0 -0.32 l-0.12 0.04 c-0.08 -0.04 -0.12 -0.12 -0.12 -0.2 s0.36 -0.84 0.44 -0.92 z M38.44 36.88 l0.16 -0.6 l-0.04 -0.12 c0.04 -0.04 0.04 -0.08 0.04 -0.16 l-0.16 0 c0 -0.16 0.16 -0.2 0.16 -0.28 s-0.24 -0.16 -0.24 -0.52 c-0.16 0 -0.24 0.76 -0.28 0.88 l0 0.36 c0 0.28 0 0.6 0.08 0.6 l0.08 -0.04 c0 -0.12 -0.04 -0.24 -0.08 -0.32 l0.08 -0.08 c0.12 0 0.08 0.16 0.2 0.28 z M38.599999999999994 33.44 l0.16 -0.04 l0 0.12 c0 0.16 -0.24 0.28 -0.28 0.44 l0.04 0.16 c-0.08 0.04 -0.08 0.12 -0.08 0.2 l0.08 0.12 c0.44 -0.4 0.6 -1.04 0.6 -1.4 c0 -0.12 -0.2 -0.16 -0.36 -0.16 c0 0.16 -0.08 0.36 -0.16 0.56 z M39.199999999999996 27.16 l0.12 0.04 c-0.12 0.32 -0.56 2.04 -0.76 2.2 c0.16 -0.8 0.32 -1.48 0.64 -2.24 z M42.03999999999999 18.6 c-0.28 0.08 -0.52 1.16 -0.64 1.44 c0.2 -0.28 0.64 -1.16 0.64 -1.44 z M39.519999999999996 29.92 l0.2 0.08 c0.12 -0.04 0.12 -0.08 0.12 -0.2 s0 -0.28 -0.08 -0.32 c-0.12 0.04 -0.12 0.32 -0.24 0.44 z M40.03999999999999 26 c-0.08 0.24 -0.08 0.52 -0.2 0.72 l0.04 0.08 c0.12 -0.16 0.2 -0.32 0.32 -0.48 c-0.16 -0.12 -0.16 -0.16 -0.16 -0.32 z M37.72 33.2 c0 -0.32 0 -1 0.36 -1.24 c-0.2 0.36 -0.32 0.88 -0.36 1.24 z M39.16 29.04 l0.12 0.04 c0.08 -0.12 0.16 -0.32 0.24 -0.4 c-0.08 -0.12 -0.04 -0.24 -0.12 -0.32 c-0.08 0.2 -0.12 0.48 -0.24 0.68 z M39.31999999999999 31.28 l-0.04 0 l0.04 -0.16 l0 -0.04 c-0.2 0.08 -0.32 0.32 -0.36 0.48 l0.04 0.08 c0.12 -0.08 0.2 -0.2 0.32 -0.36 z M37.72 35.36 l0.04 0.16 c0.12 -0.08 0.2 -0.24 0.2 -0.4 c0 0 0 -0.12 -0.08 -0.12 c-0.12 0.12 -0.16 0.24 -0.16 0.36 z M37.67999999999999 33.44 l0.04 0.16 c-0.04 0.12 -0.12 0.24 -0.16 0.36 c0 0.04 0.04 0.08 0.04 0.16 c0 0.04 -0.04 0.08 -0.04 0.08 c-0.04 -0.04 -0.04 -0.12 -0.04 -0.2 c0 -0.12 0.04 -0.48 0.16 -0.56 z M40.519999999999996 24.439999999999998 c-0.12 0 -0.16 0.32 -0.16 0.4 c0 0.04 0.04 0.12 0.12 0.16 l0.16 -0.08 c-0.12 0 -0.12 -0.2 -0.12 -0.32 l0 -0.16 z M39.919999999999995 28.92 l-0.04 -0.16 c-0.12 0 -0.24 0.24 -0.24 0.32 c0.16 0 0.24 -0.04 0.28 -0.16 z M38.63999999999999 32.64 l-0.04 -0.04 c-0.12 0.08 -0.16 0.2 -0.16 0.32 c0.08 0 0.16 -0.2 0.2 -0.28 z M38.599999999999994 33.44 l-0.08 0 c-0.08 0 -0.24 0 -0.28 0.08 c0.04 0 0.2 0.08 0.24 0.08 c0.12 0 0.08 -0.08 0.12 -0.16 z M39.63999999999999 30.560000000000002 l0.08 -0.04 l-0.08 -0.24 l-0.16 0.2 c0 0.08 0.08 0.08 0.12 0.08 l0.04 0 z M38.279999999999994 34.92 l0.16 0.12 l0.08 -0.24 l-0.04 -0.04 z M38.76 34.72 l-0.16 0.12 l0 0.04 c0 0.04 0.04 0.08 0.12 0.08 l0.16 -0.16 z M38.63999999999999 34.480000000000004 l0.08 0.12 l0.08 -0.12 l-0.08 -0.16 z M40.839999999999996 23.52 l-0.2 0.4 l0.04 0 c0.08 0 0.16 -0.32 0.16 -0.4 z M40.03999999999999 28.32 l-0.08 -0.08 c-0.04 0 -0.08 0.08 -0.12 0.12 l0.16 0.04 z M40.4 25.2 l-0.04 0 c-0.08 0 -0.12 0.04 -0.12 0.16 l0.04 0 c0.08 0 0.08 -0.08 0.12 -0.16 z M39.8 25.32 l-0.04 -0.16 l0.08 -0.12 c0 0.04 -0.04 0.24 -0.04 0.28 z M37.72 38.52 l-0.08 0.08 l0.08 0.04 l0.08 0 z M38.99999999999999 29.92 l0.08 -0.08 l-0.08 -0.08 c-0.04 0.04 -0.04 0.08 -0.04 0.08 z M39.31999999999999 26.759999999999998 c0 0.04 0 0.16 -0.12 0.2 l-0.04 0 c0.04 -0.08 0.12 -0.16 0.16 -0.2 z M39.31999999999999 32.2 l-0.04 -0.16 l0 0.2 z M38.44 32.44 l-0.12 0.12 l0.04 0.04 c0.08 0 0.08 -0.04 0.08 -0.04 l0 -0.12 z M38.76 40.96 l-0.04 -0.08 c-0.04 0.04 -0.12 0.04 -0.12 0.12 l0.08 0.04 z M38.44 38 l-0.08 -0.08 l-0.08 0.12 c0.04 0 0.16 -0.04 0.16 -0.04 z M40.279999999999994 26.08 l0.04 -0.08 l0 -0.04 l-0.12 0.04 z M39.31999999999999 31.6 l0.08 0 l-0.08 -0.04 l0 0.04 z M38.99999999999999 32.32 c-0.04 0 -0.04 0 -0.04 0.08 l0 0 c0.04 0 0.04 -0.04 0.04 -0.08 z M39.959999999999994 28 c0.04 0 0.04 0.04 0.04 0.08 l0.08 -0.04 c-0.04 -0.04 -0.08 -0.04 -0.12 -0.04 z M39.36 30.32 c0.04 0.04 0.04 0.04 0.08 0.04 c0 -0.04 0 -0.04 0.04 -0.04 l-0.12 0 z M38.16 39.56 c-0.04 0.04 -0.04 0.04 -0.04 0.08 l0.04 0 l-0.04 0 c0 -0.04 0.04 -0.04 0.04 -0.08 z M37.12 37.04 c0 0.16 0 0.24 -0.08 0.36 c0.08 -0.12 0.08 -0.2 0.08 -0.36 z M39.48 30.96 l0 0.04 l0.04 -0.04 l-0.04 0 l0 0 z M38.08 39.32 c0 0.04 0 0.04 0.04 0.04 l0.04 -0.04 c-0.04 0 -0.04 0 -0.04 -0.04 c-0.04 0 -0.04 0 -0.04 0.04 z M40.279999999999994 27.119999999999997 l-0.04 0 c0.04 0 0.04 0 0.04 0.04 c0.04 0 0.04 0 0.04 -0.04 l-0.04 0 z M39.63999999999999 29.32 l0 -0.04 c-0.04 0.04 -0.04 0.04 -0.04 0.08 l0.04 -0.04 l0 0 z M38.31999999999999 33.84 l-0.04 0 l0 0.04 c0.04 0 0.04 0 0.04 -0.04 z M39.63999999999999 27.6 l0 0.08 l0 -0.08 z M37.44 36.76 l0 -0.04 l0.08 0 c0 0.04 0 0 -0.08 0.04 z M38.44 40.28 l-0.08 0.08 c0.08 0 0.08 -0.04 0.08 -0.04 l0 0 l-0.08 0 s0.08 0 0.08 -0.04 z M53.8 32.04 l0.16 0.28 c-1.04 1.32 -2.4 2.48 -3.76 3.44 c-0.4 0.28 -1.68 0.8 -1.76 1.2 l0.2 0.08 l-0.32 0.24 l0.04 0.04 c0.52 -0.12 0.8 -0.48 1.24 -0.68 l0.48 0.2 c-0.16 0.16 -0.4 0.36 -0.68 0.52 l0.16 0.12 c-0.36 0.2 -0.68 0.44 -1.04 0.68 c-0.24 0.16 -2.52 0.96 -2.76 0.96 c-2.28 0 -4.12 -1.12 -4.12 -2.8 c0 -1.2 0.08 -2.8 0.72 -3.88 c-0.12 0.12 0.56 -0.68 0.56 -1.24 c0 -1.2 2.8 -4.4 3.6 -5.28 c0.6 -0.68 1.4 -0.88 2.36 -0.88 c1.52 0 2.72 1.12 2.72 2.48 c0 2 -0.76 1.68 -1 2.48 c-0.48 1.48 -3.36 2.84 -4.96 2.84 c-0.24 0 -0.44 -0.04 -0.68 -0.04 c-0.56 0 -0.72 1.76 -1 1.96 l0 0.16 c0 0.44 -0.12 1.44 -0.12 1.8 c0 0.4 0 1.56 0.64 1.56 c3.92 0 5.52 -4.12 8.32 -5.44 c0.32 -0.16 0.96 -0.48 1 -0.8 z M45.199999999999996 31.6 l0 0.16 c0 0.08 0 0.32 0.16 0.32 c0.2 0 0.96 -0.4 1.16 -0.52 c0.44 0 3.12 -2.04 3.16 -2.36 c0.08 -0.48 0.36 -0.96 0.36 -1.44 c0 -0.32 -0.08 -1.76 -0.64 -1.76 c-1.2 0 -2.68 3.56 -3.4 4.08 c-0.16 0.48 -0.44 1.16 -0.8 1.52 z M50.72 27.439999999999998 c-0.12 0 -0.6 0.84 -0.6 0.96 s0.04 0.28 0.16 0.28 c0.24 -0.32 0.44 -0.76 0.52 -1.12 l0.04 -0.08 z M42.35999999999999 34.2 c0.04 -0.2 0.16 -0.44 0.28 -0.6 c0 -0.04 0 -0.2 -0.08 -0.2 s-0.2 0.52 -0.28 0.6 c0 0.08 0 0.16 0.08 0.2 z M48.67999999999999 37.68 l-0.04 0.04 c0.04 0 0.08 0.04 0.08 0.04 c0.16 0 0.44 -0.2 0.52 -0.24 l-0.04 -0.08 c-0.28 0 -0.32 0.24 -0.52 0.24 z M52.76 32.6 l0 -0.04 c0.16 -0.16 0.4 -0.28 0.56 -0.44 c-0.04 0.24 -0.36 0.44 -0.56 0.48 z M42.4 35.4 c0 -0.04 0.12 -0.16 0.12 -0.2 s0 -0.12 -0.04 -0.16 c-0.16 0 -0.2 0.16 -0.2 0.24 s0.08 0.12 0.12 0.12 z M42.8 32.92 l0.12 -0.16 l-0.04 -0.08 l-0.16 0.08 l0 0.2 z M42.279999999999994 34.56 c0 -0.04 -0.08 -0.16 -0.08 -0.2 l-0.04 0.16 c0 0.08 0 0.12 0.04 0.2 c0.04 -0.04 0.08 -0.08 0.08 -0.16 z M43.839999999999996 30.52 c0 -0.04 -0.04 -0.04 -0.04 -0.08 l-0.16 0.08 l0.04 0.12 z M43.72 30.32 c0.08 -0.04 0.08 -0.12 0.12 -0.16 l-0.04 -0.08 c-0.08 0.08 -0.12 0.12 -0.16 0.24 l0.08 0 z M42.959999999999994 34.92 l0.12 -0.12 l-0.12 -0.04 l0 0.16 z M53.599999999999994 32 l0 0.04 c-0.08 0.04 -0.2 0.04 -0.28 0.08 c0.16 -0.08 0.08 -0.12 0.28 -0.12 z M42.16 35.12 l0.04 0 c0 -0.04 -0.04 -0.12 -0.08 -0.16 l-0.04 0.16 l0.08 0 z M43.919999999999995 32.96 l0 -0.2 c-0.04 0.08 -0.08 0.12 -0.08 0.24 z M44.08 30.64 l-0.08 0 l0.04 0.08 c0.04 -0.04 0.08 -0.04 0.08 -0.08 l-0.04 0 z M42.67999999999999 33.2 l0.04 0 l-0.04 -0.04 l0.04 0 l-0.04 -0.04 l0 0.08 z M58.99999999999999 43.76 c0.16 -0.4 0.64 -1.44 0.76 -1.44 l0 0.04 c0.28 0 0.2 -1 0.6 -1.16 l-0.04 0.08 l0.16 -0.12 l-0.08 -0.04 l-0.08 0.08 c0 -0.08 -0.08 -0.16 -0.08 -0.36 s0.4 -0.68 0.48 -0.92 l0.04 0.04 c-0.08 0.08 -0.08 0.12 -0.08 0.2 s0.04 0.16 0.04 0.24 c0.2 -0.2 0.12 -0.52 0.24 -0.8 c0 0 -0.04 -0.08 -0.04 -0.12 c0 -0.28 0.24 -0.72 0.24 -0.92 c0 -0.04 -0.04 -0.08 -0.04 -0.08 l0.08 0 c0.08 0 0.16 0 0.16 -0.12 l-0.08 -0.04 c-0.04 0 -0.16 0 -0.16 -0.08 c0 -0.24 0.24 -0.44 0.24 -0.72 l-0.12 -0.16 c0.08 -0.2 0.28 -0.36 0.32 -0.6 l-0.12 0.08 c0 -0.24 0.12 -0.44 0.28 -0.56 l-0.08 -0.04 l-0.04 0.04 l-0.16 -0.04 l0.16 -0.36 l-0.04 -0.12 c0 -0.16 0.16 -1.16 0.32 -1.16 c0.04 0.04 0.04 0.12 0.2 0.12 l0.16 -0.4 c0 -0.12 -0.16 -0.2 -0.16 -0.32 l0.04 -0.16 l0.04 0.04 c0 0.04 -0.04 0.04 -0.04 0.04 l0.08 0.08 l-0.04 0 c0 -0.08 0.04 -0.12 0.08 -0.16 l-0.08 -0.12 l0.12 -0.04 l-0.12 -0.12 c0 -1 0.44 -2.6 0.8 -3.24 l-0.08 -0.08 l-0.12 0.28 c-0.04 0 -0.04 -0.04 -0.04 -0.04 c0.04 -0.08 0.08 -0.32 0.08 -0.44 c0 -0.04 -0.04 -0.04 -0.08 -0.04 c-0.28 0 -1.2 1.72 -1.48 2 c-0.28 0.76 -0.96 1.68 -1.04 1.72 l0.04 0.08 c0 0.08 -0.16 0.2 -0.24 0.24 l-0.04 0 c-0.16 0.2 -0.2 0.12 -0.2 0.28 l0 0.12 c0 0.2 -1.12 1.24 -1.36 1.48 c-1.24 1.4 -2.4 2.44 -4.36 2.44 c-1.16 0 -2.32 -0.68 -2.32 -1.8 c0 -0.32 0.04 -0.6 0.2 -0.88 l-0.12 -0.08 c0 -0.48 0.4 -0.72 0.4 -1.12 l-0.04 -0.04 c0.24 -0.28 0.24 -0.56 0.24 -0.84 l-0.04 0 c0.2 -0.16 0.08 -0.2 0.2 -0.36 l0 -0.12 c0.08 -0.12 0.2 -0.28 0.24 -0.44 l-0.04 -0.12 c0 -0.64 0.28 -0.32 0.32 -0.52 c0.28 -1.04 1.08 -1.88 1.28 -2.84 l-0.04 -0.08 c0.2 -0.08 0.28 -0.36 0.4 -0.48 l-0.04 -0.16 l0.08 -0.08 l0 0.04 c0.08 0 0.12 -0.08 0.12 -0.16 c0 -0.04 0 -0.08 -0.04 -0.12 l0.2 -0.24 l0 -0.08 c0 -0.08 0.12 -0.16 0.2 -0.2 l-0.04 -0.08 c0.2 -0.36 1.52 -2.6 1.8 -2.6 c0.08 0 0.28 0 0.32 0.08 l-0.08 0.12 l0.24 -0.12 l-0.04 0.4 l0.4 -0.2 l0.08 0.04 l-0.08 0.16 c0 0.16 0.08 0.32 0.2 0.48 c-0.24 0.84 -0.96 1.6 -1.08 1.96 c-0.16 0.64 -0.88 2.28 -1.24 2.8 l0 0.12 c0 0.32 -1.88 3.68 -1.88 5.24 l0 0.16 c0 0.36 0.04 1.16 0.24 1.16 c0.72 0 1.48 -0.84 1.72 -1.12 l0.12 -0.16 c0.2 -0.08 0.32 -0.52 0.56 -0.52 l-0.04 0.16 c0.16 0 1.04 -1.08 1.24 -1.28 l0.04 0.04 l-0.04 -0.04 c0 -0.12 0.12 -0.24 0.2 -0.28 l0.16 -0.24 l0.12 0.08 l0.04 -0.04 l0 -0.04 c1 -1.04 2.24 -3.8 2.8 -3.8 l0 0.04 c0.2 -0.32 0.36 -0.64 0.56 -0.92 c0 -0.12 1.16 -1.4 1.16 -1.48 c0.16 -0.2 1.2 -1.4 1.2 -1.68 l-0.08 -0.04 c-0.16 0.12 -0.32 0.28 -0.4 0.44 l-0.08 -0.04 c0.32 -0.4 0.52 -0.76 0.84 -0.96 l0.04 0.04 c0.44 0 0.88 -0.16 1.32 -0.16 l0.08 0.08 l0.12 -0.08 c0.32 0 0.52 0.16 0.76 0.32 l-0.04 0.04 c0.04 0.08 0.04 0.12 0.04 0.2 l0 0.16 c-0.04 0.44 -0.36 0.8 -0.52 1.2 c-0.92 1.92 -1.36 4 -2.08 5.96 l-0.28 0.8 s0.04 0.16 0.04 0.2 c0 0.24 -0.2 0.48 -0.2 0.72 c0 0 0 0.08 0.04 0.12 l-0.12 0.24 c0 0.04 0.04 0.12 0.04 0.12 c0 0.2 -0.12 0.64 -0.28 0.8 l0.08 0.08 c-0.24 0.44 -0.08 1.84 -0.44 2.04 c0 0.08 0.08 0.12 0.16 0.12 c0.4 0 0.88 -0.64 1.24 -0.84 c0.6 -0.4 1.72 -0.88 2.24 -1.36 c0 -0.32 1.16 -0.64 1.48 -0.64 c0.12 0 0.24 0 0.32 0.04 l0.12 -0.08 c0.12 0 0.32 0.16 0.32 0.32 c0 0.28 -1.88 1.04 -2.2 1.28 c-1.4 0.6 -3.04 1.96 -3.92 3.12 c0 0.08 0.04 0.12 0.04 0.2 c0 0.84 -0.48 1.64 -0.48 2.48 c0 0.64 -0.56 1.32 -0.56 1.72 c0 0.88 -1.8 2.8 -2.84 2.8 l-0.4 0 c-0.72 -0.16 -0.8 -0.2 -1.36 -0.64 c0.2 -0.08 0.8 -0.2 0.8 -0.44 c0 -0.12 -0.08 -0.12 -0.08 -0.24 l0.16 -0.04 c0 -0.12 0.08 -0.48 0.28 -0.48 c0 -0.08 -0.08 -0.12 -0.08 -0.2 c0 -0.12 0.2 -0.44 0.28 -0.56 l0.04 0.08 c0.2 -0.12 0.2 -0.2 0.2 -0.32 l0 -0.2 c0 -0.44 0.44 -0.56 0.44 -0.72 z M54.239999999999995 29.92 c0.08 -0.16 0.44 -0.68 0.44 -0.84 l-0.04 -0.04 c-0.12 0.24 -0.4 0.64 -0.4 0.88 z M61.839999999999996 35.08 l0.04 0.04 c0.12 0 0.2 -0.16 0.2 -0.24 l-0.2 -0.04 c0 0.08 -0.04 0.16 -0.04 0.24 z M59.99999999999999 44.24 l-0.04 -0.16 c-0.12 0.08 -0.08 0.2 -0.16 0.32 l0.04 0 c0.08 -0.04 0.12 -0.12 0.16 -0.16 z M63.08 26.8 l0.04 0 c-0.08 0.08 -0.16 0.24 -0.32 0.24 l-0.04 -0.08 c0.16 0 0.2 -0.16 0.32 -0.16 z M61.839999999999996 35.92 l-0.08 -0.08 l-0.12 0.24 c0.08 0 0.16 -0.08 0.2 -0.16 z M52.919999999999995 32.92 c-0.16 0 -0.2 0.28 -0.2 0.4 c0.12 -0.12 0.2 -0.24 0.2 -0.4 z M62.239999999999995 33.28 l0.04 0.08 c0.04 -0.12 0.16 -0.2 0.2 -0.28 l-0.16 -0.04 c0 0.08 -0.04 0.16 -0.08 0.24 z M53.31999999999999 31.84 l0.16 -0.16 c0 -0.08 -0.04 -0.08 -0.08 -0.08 l-0.04 0 c0 0.08 0 0.16 -0.04 0.24 z M53.959999999999994 30.52 c0 0 0 -0.04 -0.04 -0.04 c-0.08 0.12 -0.12 0.24 -0.12 0.36 c0.08 -0.04 0.08 -0.2 0.16 -0.32 z M62.44 31.439999999999998 c0.04 -0.08 0 -0.2 0.16 -0.28 c0 0.12 -0.04 0.24 -0.16 0.28 z M57.879999999999995 34.16 l-0.08 0.16 c0.08 0 0.16 -0.08 0.24 -0.16 l-0.16 0 z M61.879999999999995 35.6 l-0.04 -0.04 c-0.08 0 -0.12 0.04 -0.12 0.08 l0.08 0.12 c0.04 -0.04 0.08 -0.12 0.08 -0.16 z M61.559999999999995 37.24 c-0.04 0.08 -0.04 0.12 -0.12 0.2 l0.08 0.08 c0.04 -0.08 0.04 -0.16 0.04 -0.28 z M61.879999999999995 34.36 l0.04 0.12 l-0.08 0.04 l-0.04 -0.12 z M56.8 35.2 c0.04 -0.08 0.16 -0.2 0.24 -0.28 c-0.04 0.12 -0.16 0.16 -0.24 0.28 z M52.919999999999995 32.76 l0.16 -0.16 s-0.04 -0.04 -0.08 -0.04 z M54.16 30.240000000000002 c-0.04 0 -0.12 0.04 -0.2 0.08 l0.08 0.04 c0.08 0 0.12 -0.04 0.12 -0.12 z M61.44 35.519999999999996 l0 0.08 c0 0.08 0 0.16 -0.08 0.16 c0 -0.08 0.04 -0.16 0.08 -0.24 z M52.35999999999999 35.36 l0 -0.16 l-0.12 0 c0 0.08 0 0.12 0.12 0.16 z M59.559999999999995 44.84 l0 0.04 l0.08 -0.12 l-0.04 -0.04 c0 0.04 -0.04 0.08 -0.04 0.12 z M60.48 40.68 l0.08 -0.04 l-0.04 -0.08 l-0.08 0.08 z M53.519999999999996 31.439999999999998 c0.12 0 0.12 -0.12 0.12 -0.16 c-0.12 0 -0.12 0.08 -0.12 0.16 z M60.8 39.12 l-0.04 -0.04 c0 -0.08 0.04 -0.12 0.08 -0.2 c0 0.08 0 0.2 -0.04 0.24 z M52.16 34.44 l-0.12 0.16 l0 -0.04 z M60.75999999999999 40.6 c0 -0.04 0 -0.04 -0.04 -0.04 l-0.04 0.12 l0 0.04 c0.04 0 0.04 -0.08 0.08 -0.12 z M61.71999999999999 34.4 l0 0.04 c0 0.04 0 0.08 -0.04 0.08 l-0.04 0 c0.04 -0.04 0.08 -0.08 0.08 -0.12 z M61.11999999999999 37.28 l0 0.08 l-0.04 0 l-0.08 0 z M62.35999999999999 31.6 l0.08 -0.16 l0 0.08 l0 0.08 l-0.08 0 z M53.71999999999999 31.16 l-0.04 -0.08 l-0.04 0.04 s0.04 0.04 0.08 0.04 z M63.239999999999995 26.560000000000002 l0.12 0 c-0.04 0.04 -0.04 0.04 -0.12 0.08 l-0.04 0 z M56.599999999999994 35.4 c0.08 -0.04 0.08 -0.12 0.16 -0.16 c0 0.04 -0.08 0.12 -0.16 0.16 z M56.959999999999994 25.119999999999997 l0.08 -0.04 l0 -0.04 c-0.04 0 -0.08 0.04 -0.08 0.04 l0 0.04 z M62.11999999999999 33.64 l0.04 0.08 c-0.04 0 -0.08 -0.04 -0.08 -0.04 z M63.08 29.68 l0.04 -0.08 l-0.04 -0.04 l0 0.12 z M57.16 34.72 l0 0.08 l0 0 l0 -0.08 z M61.35999999999999 35.92 l0 -0.12 l0 0.12 l0 0 z M61.99999999999999 33.2 c0 0 0 -0.08 0.04 -0.12 c0 0.04 0 0.12 -0.04 0.12 z M60.67999999999999 40.88 l0.04 0 c-0.04 0 -0.04 0 -0.04 -0.04 l0 0.04 l0 0 z M62.199999999999996 32.68 c-0.08 0.04 -0.12 0.04 -0.12 0.12 l0.04 0.04 s-0.04 -0.04 -0.04 -0.08 s0.08 -0.04 0.12 -0.08 z M61.08 37.52 l-0.08 0 l0 -0.04 c0.12 0 0 0.04 0.08 0.04 z M62.31999999999999 33.44 l-0.04 -0.08 l0 0.12 z M62.599999999999994 30.92 l0.04 0 l-0.04 0.04 l0 0 l0 -0.04 z M62.959999999999994 30.119999999999997 l0 -0.04 l-0.04 0 c0 0.04 0 0.04 0.04 0.04 z M58.67999999999999 44.28 l0.08 -0.04 c-0.04 0 -0.04 0 -0.08 0.04 z M61.559999999999995 37.24 l0 -0.04 l0 0.04 z M60.35999999999999 40.84 l0.08 -0.04 l-0.04 -0.04 l-0.04 0.04 l0 0.04 z M61.35999999999999 37.88 l0.04 -0.04 l0 0 c-0.04 0 -0.04 0 -0.04 0.04 z M61.99999999999999 33.24 l-0.12 0.12 c0.04 -0.04 0.04 -0.08 0.12 -0.12 z M60.44 40.16 l0 0.04 l-0.04 0.04 c0 -0.04 0 -0.08 0.04 -0.08 z M62.08 32.84 l0 0.04 l0 -0.04 z M60.08 43.68 c0 0.04 0.04 0.04 0.04 0.04 c0 -0.04 0 -0.04 -0.04 -0.04 z M62.63999999999999 27.32 c0 -0.04 0 -0.04 0.04 -0.04 c0 0.04 0 0.04 -0.04 0.04 z M62.519999999999996 32.56 l-0.04 0.04 c0.04 0 0.04 0 0.04 -0.04 z M59.519999999999996 45.04 l-0.04 0 l0.04 0 z M53.239999999999995 32.12 l0.04 0 l0 -0.04 c-0.04 0 -0.04 0 -0.04 0.04 z M58.279999999999994 45.2 l0.04 0 s0.04 -0.04 0.04 -0.08 z M60.08 43.88 c-0.04 0 -0.04 0.04 -0.04 0.04 s0.04 0 0.04 -0.04 z M53.239999999999995 32.28 c0 -0.04 -0.04 -0.04 -0.12 -0.04 c0 0.04 0.08 0.04 0.12 0.04 z M66.28 36.2 l0 -0.04 l0 0.04 z M59.959999999999994 34.04 l0.04 0 c0 0.04 0 0.04 -0.04 0.04 l0 -0.04 z M60.879999999999995 38.4 l0.04 0 l0 0.04 c-0.04 0 -0.04 0 -0.04 -0.04 z M58.08 33.88 l-0.04 0.04 z M61.35999999999999 35.8 l0 -0.04 l0 0.04 z M58.35999999999999 44.6 l0.04 0.04 l-0.04 0 l0 -0.04 z M53.44 32.480000000000004 l0.04 -0.04 c-0.04 0 -0.04 0 -0.04 0.04 z M60.959999999999994 38.16 l0.04 0.04 l-0.04 0 l0 -0.04 z M60.75999999999999 39.56 l0 -0.04 l0 0.04 z M62.239999999999995 32.2 l0 -0.04 l0 0.04 l0 0 z M57.279999999999994 34.64 l0 -0.04 l0 0.04 z M53.07999999999999 32.480000000000004 l-0.04 0 l0.04 0 z M59.959999999999994 44.04 l0 0.04 l0 -0.04 z M62.16 33.6 c-0.04 0 -0.04 0 -0.04 0.04 c0 -0.04 0 -0.04 0.04 -0.08 l0 0.04 z M52.75999999999999 33.519999999999996 c-0.04 0 -0.04 0 -0.12 -0.04 c0.08 0.04 0.08 0.04 0.12 0.04 z M60.8 39.6 c-0.04 0 -0.04 0 -0.04 -0.04 c0 0.04 0 0.04 0.04 0.04 z M78.67999999999999 32.04 l0.16 0.28 c-1.04 1.32 -2.4 2.48 -3.76 3.44 c-0.4 0.28 -1.68 0.8 -1.76 1.2 l0.2 0.08 l-0.32 0.24 l0.04 0.04 c0.52 -0.12 0.8 -0.48 1.24 -0.68 l0.48 0.2 c-0.16 0.16 -0.4 0.36 -0.68 0.52 l0.16 0.12 c-0.36 0.2 -0.68 0.44 -1.04 0.68 c-0.24 0.16 -2.52 0.96 -2.76 0.96 c-2.28 0 -4.12 -1.12 -4.12 -2.8 c0 -1.2 0.08 -2.8 0.72 -3.88 c-0.12 0.12 0.56 -0.68 0.56 -1.24 c0 -1.2 2.8 -4.4 3.6 -5.28 c0.6 -0.68 1.4 -0.88 2.36 -0.88 c1.52 0 2.72 1.12 2.72 2.48 c0 2 -0.76 1.68 -1 2.48 c-0.48 1.48 -3.36 2.84 -4.96 2.84 c-0.24 0 -0.44 -0.04 -0.68 -0.04 c-0.56 0 -0.72 1.76 -1 1.96 l0 0.16 c0 0.44 -0.12 1.44 -0.12 1.8 c0 0.4 0 1.56 0.64 1.56 c3.92 0 5.52 -4.12 8.32 -5.44 c0.32 -0.16 0.96 -0.48 1 -0.8 z M70.07999999999998 31.6 l0 0.16 c0 0.08 0 0.32 0.16 0.32 c0.2 0 0.96 -0.4 1.16 -0.52 c0.44 0 3.12 -2.04 3.16 -2.36 c0.08 -0.48 0.36 -0.96 0.36 -1.44 c0 -0.32 -0.08 -1.76 -0.64 -1.76 c-1.2 0 -2.68 3.56 -3.4 4.08 c-0.16 0.48 -0.44 1.16 -0.8 1.52 z M75.6 27.439999999999998 c-0.12 0 -0.6 0.84 -0.6 0.96 s0.04 0.28 0.16 0.28 c0.24 -0.32 0.44 -0.76 0.52 -1.12 l0.04 -0.08 z M67.24 34.2 c0.04 -0.2 0.16 -0.44 0.28 -0.6 c0 -0.04 0 -0.2 -0.08 -0.2 s-0.2 0.52 -0.28 0.6 c0 0.08 0 0.16 0.08 0.2 z M73.55999999999999 37.68 l-0.04 0.04 c0.04 0 0.08 0.04 0.08 0.04 c0.16 0 0.44 -0.2 0.52 -0.24 l-0.04 -0.08 c-0.28 0 -0.32 0.24 -0.52 0.24 z M77.63999999999999 32.6 l0 -0.04 c0.16 -0.16 0.4 -0.28 0.56 -0.44 c-0.04 0.24 -0.36 0.44 -0.56 0.48 z M67.27999999999999 35.4 c0 -0.04 0.12 -0.16 0.12 -0.2 s0 -0.12 -0.04 -0.16 c-0.16 0 -0.2 0.16 -0.2 0.24 s0.08 0.12 0.12 0.12 z M67.67999999999999 32.92 l0.12 -0.16 l-0.04 -0.08 l-0.16 0.08 l0 0.2 z M67.16 34.56 c0 -0.04 -0.08 -0.16 -0.08 -0.2 l-0.04 0.16 c0 0.08 0 0.12 0.04 0.2 c0.04 -0.04 0.08 -0.08 0.08 -0.16 z M68.71999999999998 30.52 c0 -0.04 -0.04 -0.04 -0.04 -0.08 l-0.16 0.08 l0.04 0.12 z M68.6 30.32 c0.08 -0.04 0.08 -0.12 0.12 -0.16 l-0.04 -0.08 c-0.08 0.08 -0.12 0.12 -0.16 0.24 l0.08 0 z M67.83999999999999 34.92 l0.12 -0.12 l-0.12 -0.04 l0 0.16 z M78.47999999999999 32 l0 0.04 c-0.08 0.04 -0.2 0.04 -0.28 0.08 c0.16 -0.08 0.08 -0.12 0.28 -0.12 z M67.03999999999999 35.12 l0.04 0 c0 -0.04 -0.04 -0.12 -0.08 -0.16 l-0.04 0.16 l0.08 0 z M68.8 32.96 l0 -0.2 c-0.04 0.08 -0.08 0.12 -0.08 0.24 z M68.96 30.64 l-0.08 0 l0.04 0.08 c0.04 -0.04 0.08 -0.04 0.08 -0.08 l-0.04 0 z M67.55999999999999 33.2 l0.04 0 l-0.04 -0.04 l0.04 0 l-0.04 -0.04 l0 0.08 z M101.03999999999999 27.64 c0 0.16 -0.4 0.36 -0.4 0.44 c0 0.28 0.24 0.04 0.24 0.28 c0 0.12 -0.32 -0.04 -0.32 0.48 c0 1 -0.64 1.8 -0.64 2.04 c0 0.2 0.12 0.4 0.12 0.64 c0 0.08 -1.56 3.28 -1.68 3.44 c-0.12 0.68 -0.88 2.28 -1.56 2.64 c-0.28 0.12 -0.28 1 -1.16 1.2 c-0.32 0.56 -0.56 1.16 -1.2 1.6 c-0.12 0.32 -3 2.84 -3.16 2.84 c-1.68 0.96 -2.92 2 -5.04 2 c-1.36 0 -1.96 -0.52 -3.04 -0.92 c-0.4 0 -1.2 -1.72 -1.32 -2.08 s-0.32 -1.92 -0.32 -2.6 c0 -0.12 0 -0.2 0.04 -0.28 c-0.04 -0.04 -0.04 -0.12 -0.04 -0.24 c0 -0.72 0.48 -2.52 0.64 -2.92 l-0.16 -0.24 c0 -1.64 1 -1.96 1.16 -2.4 l-0.12 -0.24 c0 -0.16 0.56 -0.56 0.64 -0.72 l-0.04 -0.08 c-0.08 0.04 -0.24 0.2 -0.28 0.2 c-0.08 0 -0.12 -0.16 -0.12 -0.16 c0 -1.04 1.36 -1.64 1.36 -2.04 c0 -0.04 -0.72 -3.48 -0.72 -3.52 c0.04 -0.2 0.04 -0.4 0.04 -0.64 l0 -0.64 c0 -0.84 0.36 -1.64 0.36 -2.28 c-0.12 -0.04 -0.16 -0.16 -0.16 -0.28 c0 -0.88 0.8 -1.24 0.84 -2.04 l-0.12 -0.16 c0.08 -0.12 0.32 -0.16 0.32 -0.32 c0 -0.08 -0.16 -0.24 -0.16 -0.4 c0.36 -0.56 1.2 -2.56 1.64 -2.84 c0.72 -1 1.8 -2.92 3.32 -2.92 c0.56 0 1 -0.32 1.6 -0.32 c0.64 0 1.28 -0.16 1.92 -0.16 c1.72 0 2.4 0.16 3.84 0.96 c0.6 0.32 2.68 1.72 2.88 2.32 c0.28 0.24 0.28 0.84 0.64 0.88 c0.16 0.32 0.52 1.08 0.52 1.48 c0 0.52 0.32 1 0.36 1.44 c0 0.36 0.08 1.4 0.08 2.04 c0 0.2 0 0.36 -0.04 0.48 c0.04 0.16 0.08 0.32 0.08 0.48 c0 1.16 -0.92 2.6 -0.92 3.2 c0 0.08 0.08 0.28 0.08 0.36 z M86.96 26.68 l0.2 -0.4 c0.16 0 0.16 -0.12 0.16 -0.24 c0 -0.08 -0.08 -0.2 -0.08 -0.32 c0 -0.4 0.88 -1.52 1.12 -1.84 c0.2 -0.24 0.32 -0.44 0.52 -0.6 l0.12 -0.16 s0.96 -1.08 0.96 -1.24 c0.56 -1.16 1.76 -1.8 3.16 -1.8 c0.52 0 1.16 0.68 1.16 1.16 c0 1 -0.36 0.84 -1.04 1.24 l-0.28 0 c-0.36 0 -0.96 0.8 -1.08 1.12 c-0.08 0.48 -0.52 0.48 -0.64 0.8 c-0.44 1.04 -1.72 1.96 -2 2.8 c-0.56 0.72 -1.04 2.16 -1.2 2.4 c-0.52 0.52 -0.84 1.08 -1.12 1.68 c0.04 1.04 1.28 1.12 2.16 1.12 l0.24 0 c0.32 0 0.68 0 1 -0.16 c0.08 0.08 0.2 0.12 0.36 0.12 c0.08 0 0.16 -0.12 0.28 -0.12 s0.24 0.12 0.32 0.16 c-0.64 0.36 -1.32 0.48 -2.08 0.48 c-1.16 0 -2 -0.4 -2.68 -0.4 c-0.24 0 -0.96 1.48 -0.96 1.72 c-0.12 0.24 -0.2 0.44 -0.36 0.6 l0.04 0.12 c0 0.76 -0.56 1.28 -0.64 1.96 c-0.24 1.36 -0.68 2.72 -0.68 4.08 c0 0.56 0.36 2.24 0.76 2.64 l0 0.08 c0.16 0.12 0.36 0.2 0.52 0.2 c1.68 0 3.28 -1 4.44 -2 c0.44 -0.36 1 -0.6 1.36 -0.96 c0.52 -1.16 1.92 -1.64 2.4 -2.68 c0.24 -0.56 1.32 -0.88 1.32 -1.56 c0.56 -1.28 2.44 -3.16 2.44 -3.12 l-0.04 -0.04 c0 -0.36 0.72 -0.36 0.72 -0.64 c0.04 -0.16 1.48 -2.52 1.6 -2.52 l-0.08 -0.2 c0.08 -0.08 0.32 -0.76 0.36 -0.8 l0.08 -0.16 l-0.04 -0.16 c0.04 -0.16 0.24 -0.32 0.4 -0.32 c0.08 -0.6 0.52 -1.12 0.52 -1.68 l-0.04 -0.16 c-1.16 0 -0.92 0.56 -1.36 1.2 c-0.16 0.08 -0.44 1.12 -0.52 1.28 l0.08 0.16 c0 0.8 -1.04 1.44 -1.48 2 c0 -0.04 1.24 -3.64 1.4 -4 c0.72 -1.72 1.04 -3.32 1.04 -5.2 c0 -2.28 -0.72 -4.96 -2.92 -6.32 c-0.88 -0.56 -1.92 -1.28 -3.04 -1.28 c-0.36 0 -1.08 0.52 -1.4 0.72 c-0.6 0.4 -1.28 0.52 -1.88 0.96 c-2.2 1.6 -4.44 5.6 -4.44 8.24 c0 0.36 -0.2 0.76 -0.24 1.12 c0.08 0.24 0.16 0.48 0.16 0.72 c0 0.32 -0.2 0.64 -0.2 0.96 c0 0.16 0 0.6 0.2 0.6 c0.4 0 0.8 -1.08 0.92 -1.36 z M95.11999999999999 38.48 c0.48 -0.16 0.68 -0.56 0.84 -0.96 l-0.2 -0.12 c-0.32 0 -0.92 0.64 -1.12 0.84 l0 0.24 c0 0.44 -0.6 0.32 -0.6 0.76 c0 0.04 0.04 0.12 0.16 0.2 c0.32 -0.16 0.96 -0.8 1.04 -0.8 c0 0 -0.08 -0.12 -0.12 -0.16 z M99.56 31.68 c0.12 -0.08 0.24 -0.24 0.32 -0.36 l-0.24 -0.04 c-0.32 0.4 -0.16 0.84 -0.72 1 c-0.04 0.04 -0.04 0.12 -0.04 0.16 l0 0.12 c0.04 0.04 0.16 0.12 0.2 0.16 c0.28 -0.16 0.4 -0.72 0.48 -1.04 z M99 33.04 l-0.2 0 c-0.16 0 -0.4 0.04 -0.4 0.24 c0.16 0.08 0.2 0.16 0.32 0.16 c0.08 -0.08 0.2 -0.24 0.28 -0.4 z M100 25.52 l0 0.24 c0 -0.12 0.08 -0.32 0.16 -0.4 l0 -0.12 c-0.08 0.12 -0.12 0.2 -0.16 0.28 z M97.6 33.84 l-0.12 0.4 l-0.12 0.04 c0.36 0 0.2 -0.24 0.32 -0.4 z M85.72 19.48 c-0.12 0.04 -0.2 0.04 -0.2 0.16 c0 0.04 0.16 0.04 0.16 0.04 c0 -0.08 0.04 -0.12 0.04 -0.2 z M100.67999999999999 22 l0.08 -0.04 c-0.08 -0.08 0 -0.16 -0.16 -0.16 l-0.04 0.04 c0 0.04 0.08 0.12 0.12 0.16 z M85.96 19.04 l-0.04 0.08 l0 0.08 l0.08 -0.08 s-0.04 -0.04 -0.04 -0.08 z M96.47999999999999 37.04 l-0.08 0.04 l0.04 0.08 c0.04 0 0.08 -0.04 0.08 -0.08 s-0.04 -0.04 -0.04 -0.04 z M98.44 33.72 l-0.08 0.04 l0.12 0 z M97.36 31.560000000000002 l-0.04 0 l0.04 -0.04 l0 0.04 z M85.72 19.48 l0.08 0 l-0.08 0 l0 0 z M109.88 15.280000000000001 c0 0.52 -0.84 1.44 -0.84 1.92 c-0.88 1.52 -1.84 4.92 -2.24 6.68 c-0.12 0.52 -0.52 1.2 -0.56 1.68 c0 0.28 -0.2 1.96 -0.52 1.96 c-0.12 0 -0.12 -0.08 -0.12 -0.08 l-0.12 0.12 c0 0.12 0.12 0.12 0.2 0.2 c-0.12 0.52 -0.68 2.08 -0.68 2.64 c0 0.04 0 0.08 0.04 0.12 c-0.12 0.36 -0.2 0.44 -0.2 0.72 c0 0.08 0 0.2 0.04 0.36 l-0.24 0.24 c0 0.12 0.04 0.24 0.04 0.4 c0 0.6 -0.64 2.68 -0.64 3.48 c0 0.12 0 0.2 0.04 0.24 c-0.24 0.2 -0.28 0.56 -0.28 0.88 l0 0.36 c0 0.8 0.04 2.36 0.36 2.84 c0.08 0.16 0.24 0.12 0.32 0.2 c0.16 0.2 0.48 0.8 0.8 0.8 c0.8 0 2 -1.64 2.4 -1.76 l0.04 0.16 c-0.64 1.44 -1.04 2.4 -3.24 2.4 c-2.4 0 -2.96 -2.28 -2.96 -3.64 c0 -0.32 0.04 -0.64 0.04 -0.96 c0 -0.28 -0.04 -0.56 -0.04 -0.84 c0 -0.24 0.28 -0.64 0.32 -0.88 c0.08 -1 0.28 -1.92 0.48 -2.92 l-0.04 -0.04 c0.52 -1.68 1.08 -3.84 1.08 -4.16 c0 -0.6 1.12 -3.64 1.28 -4.68 c0.2 -0.96 0.32 -2.04 0.68 -2.96 c0.44 -1.08 0.68 -0.56 0.96 -2.24 l-0.08 -0.08 c0.12 -0.76 0.44 -1.52 0.72 -2.2 c0.88 -0.6 0.28 -1.92 2.16 -1.92 c0.6 0 0.8 0.48 0.8 0.96 z M102.6 36.24 l0.08 -0.32 l0.04 0 s-0.04 -0.08 -0.04 -0.12 c0 -1 0.6 -3.88 0.88 -5 l-0.16 0.16 l-0.04 0 c0.04 -0.68 0.52 -1.4 0.72 -2.04 c0.48 -1.8 0.84 -3.56 1.52 -5.32 c0.36 -0.96 0.88 -1.92 1.2 -2.88 c-0.2 0.08 -1.8 3.72 -1.84 4.16 c-0.04 0 -0.04 -0.12 -0.04 -0.16 c0 -0.88 2.12 -5.32 2.44 -7.68 l-0.08 -0.08 c-0.12 0.24 -0.64 1.12 -0.64 1.28 l0.04 0 c-1 2.64 -1.56 5.36 -2.48 8 c-0.12 0.32 -0.2 0.56 -0.24 0.88 c-0.12 0.64 -1.44 5.48 -1.44 5.84 l0 0.04 c-0.44 1.24 -0.68 2.52 -0.68 3.84 c0 0.52 0 1 0.08 1.52 c0 0.04 -0.04 0.12 -0.04 0.12 c0 0.16 0.04 0.28 0.04 0.4 l0.08 -0.2 c0 -0.04 -0.04 -0.08 -0.04 -0.16 c0 -0.36 0.12 -0.76 0.16 -1.12 c0 0.52 0 1.08 0.16 1.56 c0.08 -0.12 0.24 -0.44 0.24 -0.56 c0 -0.2 -0.12 -0.36 -0.12 -0.56 c0 -0.32 0.28 -0.32 0.28 -0.52 c0 -0.16 -0.2 0.04 -0.2 -0.24 c0.2 -0.16 0.2 -0.44 0.32 -0.68 l-0.08 -0.24 z M103.64 37.24 c0 -0.08 0 -0.12 -0.12 -0.16 l-0.24 0.32 c-0.04 0 -0.12 -0.04 -0.12 -0.08 c-0.2 0 -0.2 0.36 -0.2 0.56 c0 0.12 0 0.24 0 0.2 c0 0.2 0.12 1 0.44 1 c0.12 0 0.12 -0.12 0.12 -0.16 c-0.08 -0.08 -0.08 -0.2 -0.08 -0.28 l0 -0.32 l-0.12 0.04 c-0.08 -0.04 -0.12 -0.12 -0.12 -0.2 s0.36 -0.84 0.44 -0.92 z M103.52 36.88 l0.16 -0.6 l-0.04 -0.12 c0.04 -0.04 0.04 -0.08 0.04 -0.16 l-0.16 0 c0 -0.16 0.16 -0.2 0.16 -0.28 s-0.24 -0.16 -0.24 -0.52 c-0.16 0 -0.24 0.76 -0.28 0.88 l0 0.36 c0 0.28 0 0.6 0.08 0.6 l0.08 -0.04 c0 -0.12 -0.04 -0.24 -0.08 -0.32 l0.08 -0.08 c0.12 0 0.08 0.16 0.2 0.28 z M103.67999999999999 33.44 l0.16 -0.04 l0 0.12 c0 0.16 -0.24 0.28 -0.28 0.44 l0.04 0.16 c-0.08 0.04 -0.08 0.12 -0.08 0.2 l0.08 0.12 c0.44 -0.4 0.6 -1.04 0.6 -1.4 c0 -0.12 -0.2 -0.16 -0.36 -0.16 c0 0.16 -0.08 0.36 -0.16 0.56 z M104.28 27.16 l0.12 0.04 c-0.12 0.32 -0.56 2.04 -0.76 2.2 c0.16 -0.8 0.32 -1.48 0.64 -2.24 z M107.11999999999999 18.6 c-0.28 0.08 -0.52 1.16 -0.64 1.44 c0.2 -0.28 0.64 -1.16 0.64 -1.44 z M104.6 29.92 l0.2 0.08 c0.12 -0.04 0.12 -0.08 0.12 -0.2 s0 -0.28 -0.08 -0.32 c-0.12 0.04 -0.12 0.32 -0.24 0.44 z M105.11999999999999 26 c-0.08 0.24 -0.08 0.52 -0.2 0.72 l0.04 0.08 c0.12 -0.16 0.2 -0.32 0.32 -0.48 c-0.16 -0.12 -0.16 -0.16 -0.16 -0.32 z M102.8 33.2 c0 -0.32 0 -1 0.36 -1.24 c-0.2 0.36 -0.32 0.88 -0.36 1.24 z M104.24 29.04 l0.12 0.04 c0.08 -0.12 0.16 -0.32 0.24 -0.4 c-0.08 -0.12 -0.04 -0.24 -0.12 -0.32 c-0.08 0.2 -0.12 0.48 -0.24 0.68 z M104.39999999999999 31.28 l-0.04 0 l0.04 -0.16 l0 -0.04 c-0.2 0.08 -0.32 0.32 -0.36 0.48 l0.04 0.08 c0.12 -0.08 0.2 -0.2 0.32 -0.36 z M102.8 35.36 l0.04 0.16 c0.12 -0.08 0.2 -0.24 0.2 -0.4 c0 0 0 -0.12 -0.08 -0.12 c-0.12 0.12 -0.16 0.24 -0.16 0.36 z M102.75999999999999 33.44 l0.04 0.16 c-0.04 0.12 -0.12 0.24 -0.16 0.36 c0 0.04 0.04 0.08 0.04 0.16 c0 0.04 -0.04 0.08 -0.04 0.08 c-0.04 -0.04 -0.04 -0.12 -0.04 -0.2 c0 -0.12 0.04 -0.48 0.16 -0.56 z M105.6 24.439999999999998 c-0.12 0 -0.16 0.32 -0.16 0.4 c0 0.04 0.04 0.12 0.12 0.16 l0.16 -0.08 c-0.12 0 -0.12 -0.2 -0.12 -0.32 l0 -0.16 z M105 28.92 l-0.04 -0.16 c-0.12 0 -0.24 0.24 -0.24 0.32 c0.16 0 0.24 -0.04 0.28 -0.16 z M103.72 32.64 l-0.04 -0.04 c-0.12 0.08 -0.16 0.2 -0.16 0.32 c0.08 0 0.16 -0.2 0.2 -0.28 z M103.67999999999999 33.44 l-0.08 0 c-0.08 0 -0.24 0 -0.28 0.08 c0.04 0 0.2 0.08 0.24 0.08 c0.12 0 0.08 -0.08 0.12 -0.16 z M104.72 30.560000000000002 l0.08 -0.04 l-0.08 -0.24 l-0.16 0.2 c0 0.08 0.08 0.08 0.12 0.08 l0.04 0 z M103.36 34.92 l0.16 0.12 l0.08 -0.24 l-0.04 -0.04 z M103.83999999999999 34.72 l-0.16 0.12 l0 0.04 c0 0.04 0.04 0.08 0.12 0.08 l0.16 -0.16 z M103.72 34.480000000000004 l0.08 0.12 l0.08 -0.12 l-0.08 -0.16 z M105.91999999999999 23.52 l-0.2 0.4 l0.04 0 c0.08 0 0.16 -0.32 0.16 -0.4 z M105.11999999999999 28.32 l-0.08 -0.08 c-0.04 0 -0.08 0.08 -0.12 0.12 l0.16 0.04 z M105.47999999999999 25.2 l-0.04 0 c-0.08 0 -0.12 0.04 -0.12 0.16 l0.04 0 c0.08 0 0.08 -0.08 0.12 -0.16 z M104.88 25.32 l-0.04 -0.16 l0.08 -0.12 c0 0.04 -0.04 0.24 -0.04 0.28 z M102.8 38.52 l-0.08 0.08 l0.08 0.04 l0.08 0 z M104.08 29.92 l0.08 -0.08 l-0.08 -0.08 c-0.04 0.04 -0.04 0.08 -0.04 0.08 z M104.39999999999999 26.759999999999998 c0 0.04 0 0.16 -0.12 0.2 l-0.04 0 c0.04 -0.08 0.12 -0.16 0.16 -0.2 z M104.39999999999999 32.2 l-0.04 -0.16 l0 0.2 z M103.52 32.44 l-0.12 0.12 l0.04 0.04 c0.08 0 0.08 -0.04 0.08 -0.04 l0 -0.12 z M103.83999999999999 40.96 l-0.04 -0.08 c-0.04 0.04 -0.12 0.04 -0.12 0.12 l0.08 0.04 z M103.52 38 l-0.08 -0.08 l-0.08 0.12 c0.04 0 0.16 -0.04 0.16 -0.04 z M105.36 26.08 l0.04 -0.08 l0 -0.04 l-0.12 0.04 z M104.39999999999999 31.6 l0.08 0 l-0.08 -0.04 l0 0.04 z M104.08 32.32 c-0.04 0 -0.04 0 -0.04 0.08 l0 0 c0.04 0 0.04 -0.04 0.04 -0.08 z M105.03999999999999 28 c0.04 0 0.04 0.04 0.04 0.08 l0.08 -0.04 c-0.04 -0.04 -0.08 -0.04 -0.12 -0.04 z M104.44 30.32 c0.04 0.04 0.04 0.04 0.08 0.04 c0 -0.04 0 -0.04 0.04 -0.04 l-0.12 0 z M103.24 39.56 c-0.04 0.04 -0.04 0.04 -0.04 0.08 l0.04 0 l-0.04 0 c0 -0.04 0.04 -0.04 0.04 -0.08 z M102.19999999999999 37.04 c0 0.16 0 0.24 -0.08 0.36 c0.08 -0.12 0.08 -0.2 0.08 -0.36 z M104.55999999999999 30.96 l0 0.04 l0.04 -0.04 l-0.04 0 l0 0 z M103.16 39.32 c0 0.04 0 0.04 0.04 0.04 l0.04 -0.04 c-0.04 0 -0.04 0 -0.04 -0.04 c-0.04 0 -0.04 0 -0.04 0.04 z M105.36 27.119999999999997 l-0.04 0 c0.04 0 0.04 0 0.04 0.04 c0.04 0 0.04 0 0.04 -0.04 l-0.04 0 z M104.72 29.32 l0 -0.04 c-0.04 0.04 -0.04 0.04 -0.04 0.08 l0.04 -0.04 l0 0 z M103.39999999999999 33.84 l-0.04 0 l0 0.04 c0.04 0 0.04 0 0.04 -0.04 z M104.72 27.6 l0 0.08 l0 -0.08 z M102.52 36.76 l0 -0.04 l0.08 0 c0 0.04 0 0 -0.08 0.04 z M103.52 40.28 l-0.08 0.08 c0.08 0 0.08 -0.04 0.08 -0.04 l0 0 l-0.08 0 s0.08 0 0.08 -0.04 z M112.44 32.76 l-0.04 -0.04 c0.28 -0.16 0.56 -0.48 0.68 -0.8 l-0.04 -0.04 c0.04 -0.36 0.52 -0.8 0.8 -1.04 l-0.04 -0.08 l0.04 -0.08 l0.08 0.08 l0.2 -0.28 l-0.08 -0.08 l0.12 -0.12 c0 -0.56 1.28 -1.88 1.76 -2.2 l0 0 c0.16 -0.04 0.32 -0.12 0.48 -0.12 l0.04 0.04 c0.16 0 0.24 -0.2 0.44 -0.2 l0 0.04 c0.08 -0.08 0.24 -0.16 0.44 -0.16 l0 0.08 l0.16 -0.08 l0.2 0.04 l0.12 -0.04 c0.04 0.24 0.2 0.2 0.2 0.44 c0 0.2 -0.12 0.48 -0.16 0.68 l0 0.04 c-0.36 0.8 -0.84 1.92 -0.96 2.76 c-0.08 0.8 -0.16 1.72 -0.44 2.44 c0 0.04 0 0.12 -0.08 0.12 c-0.12 0 -0.12 0.44 -0.12 0.52 c0 0.52 -0.16 0.96 -0.16 1.48 c0 0.24 0.08 1.52 0.52 1.52 l0.28 -0.2 c0.12 0 0.04 0.2 0.2 0.2 c0 0.12 -0.12 0.04 -0.16 0.2 c0.04 0.04 0.12 0.08 0.12 0.16 l-0.08 0.2 l0 0.08 c-0.08 0 -0.16 0.12 -0.16 0.16 l0.04 0.04 c0 0.12 -0.16 0.12 -0.24 0.16 l-0.04 -0.08 l-0.2 0.12 l-0.12 0 c-0.12 0 -0.24 0.08 -0.36 0.08 c-0.16 -0.08 -0.24 -0.16 -0.36 -0.16 l-0.04 0.04 c-0.24 -0.04 -0.64 -0.36 -0.8 -0.48 c-0.48 -0.24 -0.52 -0.68 -0.52 -1.16 c0 -0.24 -0.2 -0.48 -0.2 -0.72 c0 -0.4 0.2 -0.88 0.2 -1.36 l-0.04 -0.04 l0.04 -0.12 c0 -0.6 0.16 -0.96 0.16 -1.48 c0 -0.04 -0.08 -0.16 -0.08 -0.2 c-0.04 0.4 -0.8 0.88 -0.92 1.24 c-0.32 0.44 -0.64 0.84 -0.92 1.24 c-1.12 0.8 -0.88 0.92 -1.68 1.64 c-0.28 0.28 -0.64 0.48 -0.96 0.72 l0 -0.04 c-0.68 0 -1.2 0.36 -1.88 0.36 c-0.04 0 -0.24 -0.12 -0.32 -0.12 l-0.16 0.04 c-0.56 -0.64 -0.84 -1.28 -0.84 -2.08 c0 -1 0.32 -2 0.68 -2.96 c0.32 -0.88 0.76 -1.72 1.28 -2.52 c0.16 -0.28 0.36 -0.56 0.52 -0.8 l0.2 -0.32 s0.16 -0.04 0.16 -0.08 l0.52 -1.08 c0 -0.04 0.32 -0.32 0.32 -0.36 c0 -0.16 2.04 -1.64 2.36 -1.84 c0.4 0 0.8 -0.16 1.12 -0.32 c0 0 0.44 -0.2 0.52 -0.2 c0.04 0 0 0 0 0.04 c0.12 -0.04 0.48 -0.12 0.8 -0.12 c0.08 0 0.16 0 0.2 0.04 l-0.04 -0.08 c0.72 0 1.44 0.68 1.88 1.16 c0.04 0.08 0.08 0.12 0.2 0.12 l-0.04 0.04 l0.08 0.12 l0 0.04 l-0.2 -0.04 l-0.08 0.08 c0 0.2 0.28 0.24 0.28 0.36 l-0.2 -0.12 l-0.24 0.08 c0 0.16 0.24 0.2 0.44 0.24 c-0.88 -0.2 -0.96 -0.12 -1.72 -0.6 c-0.28 -0.16 -0.56 -0.6 -0.88 -0.6 c-0.04 0 -0.76 0.2 -0.84 0.24 c0.12 -0.12 0.28 -0.16 0.44 -0.24 c-0.2 0 -1.2 0.48 -1.2 0.68 l0.2 0 c-0.04 0.2 -0.48 0.72 -0.72 0.76 l0.08 0.08 l-0.08 0.04 l0.12 0.12 c-0.28 0.2 -0.68 0.64 -0.68 0.96 c-0.2 0.16 -0.92 1.44 -0.96 1.68 c-0.36 0.2 -0.76 1.08 -0.88 1.48 l0 -0.04 c-0.64 0.72 -1.68 3.52 -1.76 4.56 c0.08 0.08 -0.04 0.16 0.12 0.16 c0.32 -0.36 1 -1 1.52 -1.12 l0.16 0 l0.08 -0.16 l-0.04 0 c0.04 -0.12 0.32 -0.36 0.36 -0.48 l0 0.04 c0 -0.32 0.24 -0.68 0.6 -0.8 l-0.04 0 c0.04 -0.2 0.52 -0.24 0.52 -0.6 l-0.04 -0.04 l0.2 -0.12 l-0.04 0 c0.04 -0.28 0.28 -0.56 0.56 -0.72 z M112.39999999999999 27.759999999999998 c0.16 -0.2 0.52 -0.92 0.88 -0.96 c-0.2 0.36 -0.68 0.64 -0.88 1 l0 -0.04 z M113.36 27.04 l-0.04 -0.04 c0.04 -0.04 0.12 -0.16 0.16 -0.2 l0.08 0.08 c0 0.08 -0.12 0.12 -0.2 0.16 z M113.88 26.64 c-0.08 0.04 -0.16 0.12 -0.28 0.16 l0 0 c0.08 -0.08 0.2 -0.16 0.28 -0.16 z M108.72 30.560000000000002 c0.04 -0.04 0.08 -0.08 0.08 -0.12 c-0.08 0 -0.08 0.08 -0.08 0.12 z M117.36 27.560000000000002 l-0.08 0 c-0.16 0 -0.28 -0.04 -0.32 -0.08 c0.12 0 0.28 0.08 0.4 0.08 z M110.44 35.44 l0.08 0 l0 -0.04 z M113.83999999999999 31.2 l0.08 0 l0.04 -0.04 c-0.04 0 -0.08 0 -0.12 0.04 z M110.44 35.44 l-0.04 0.08 l0 0.04 c0.04 -0.04 0.04 -0.08 0.04 -0.12 z M114.44 34.64 l0 0.08 l0.04 -0.04 z M113.91999999999999 30.6 l-0.04 0 l0.04 -0.04 c0.04 0 0.04 0 0.04 -0.04 c0 0.04 0 0.04 -0.04 0.08 z M113.83999999999999 30.64 c0 -0.04 0 -0.04 0.04 -0.04 c0 0.04 0 0.04 -0.04 0.04 z M117.32 27.6 l0 0 l0 0 l0 0 z M110.08 35.72 l0.12 -0.04 c-0.04 0.04 -0.04 0.04 -0.12 0.04 z M116.8 27.439999999999998 l0 0.04 l0 -0.04 z M131.32 19.36 c0 0.12 0.12 0.24 0.16 0.4 c0.12 -0.08 0.16 -0.24 0.16 -0.4 c0 -0.08 0 -0.16 -0.12 -0.16 c-0.04 0 -0.16 0.12 -0.2 0.16 c0.16 -0.32 0.24 -2.12 0.6 -2.12 c0.44 0 0.08 -0.44 0.4 -0.52 c-0.16 -0.04 -0.2 -0.16 -0.24 -0.28 c0.16 -0.76 0.68 -1.4 0.68 -2.04 c0 -0.08 -0.24 -0.32 -0.24 -0.56 c0 -0.2 0.28 -0.8 0.52 -0.8 s0.32 0.32 0.44 0.32 c0.04 -0.04 0.16 -0.12 0.24 -0.12 c0.16 0.08 0.28 0.28 0.4 0.4 c0.16 0 0.16 -0.36 0.28 -0.36 c0.44 0 0.2 0.32 0.36 0.32 c0 0 0.08 -0.08 0.08 -0.12 l0 -0.04 c0.12 0 0.36 0.24 0.6 0.24 c0.04 0 0.08 -0.04 0.08 -0.04 l0.16 0.04 l-0.08 0.2 c0.04 0.08 0.08 0.28 0.08 0.36 c0 0.2 -0.24 0.16 -0.24 0.36 c0 0.12 0.08 0.32 0.08 0.44 c0 0.2 -0.52 0.48 -0.56 0.96 c-0.12 0.32 -0.24 0.96 -0.52 1.2 c-0.32 0.32 -0.24 1.52 -0.68 2.24 l0 0.08 c0 0.08 -0.04 0.2 -0.08 0.28 l0.04 0.08 c-0.16 0.12 -0.24 0.36 -0.24 0.52 c0 0.08 0.04 0.2 0.04 0.32 c0 0.16 -0.04 0.24 -0.12 0.24 l-0.08 -0.04 c-0.08 0.2 -0.4 0.76 -0.4 0.92 c0 0.96 -0.56 1.44 -0.56 1.96 c0 0.12 0.04 0.24 0.04 0.32 c0 0.28 -0.24 0.44 -0.24 0.56 l0.04 0.16 c0 0.2 -0.56 1.64 -0.56 2 c0 0.12 0.04 0.24 0.04 0.36 c0 0.08 0 0.2 -0.04 0.32 l0 0.04 c0 0.24 -0.56 0.72 -0.56 1.28 l0.04 0.12 l-0.04 0.12 c0 0.12 0.08 0.28 0.08 0.4 c0 0.64 -0.64 0.68 -0.64 1.92 c0 0.2 0.08 0.4 0.08 0.64 c0 0.36 -0.36 0.8 -0.36 1.16 c0 0.08 0.12 0.16 0.16 0.16 c0 0.12 -0.12 0.16 -0.12 0.28 c0 0.04 0.04 0.16 0.08 0.2 c-0.08 0.24 -0.16 0.48 -0.16 0.72 c0 0.08 0.04 0.16 0.04 0.24 c0 0.52 -0.28 0.64 -0.28 0.8 s0.08 0.32 0.08 0.48 c0 0.08 -0.04 0.16 -0.16 0.32 c0 0.16 0.08 0.24 0.08 0.36 c0 0.16 -0.12 0.28 -0.12 0.4 c0 0.04 0.08 0.36 0.12 0.4 c-0.08 0.08 -0.08 0.16 -0.08 0.24 l0 0.2 c0 0.68 -0.16 1.28 -0.16 1.92 l0 0.48 s0 0.32 -0.2 0.48 l0.12 0.16 c-0.04 0.12 -0.04 0.64 -0.04 0.8 c0 0.04 0.04 0.12 0.12 0.16 c-0.08 0.04 -0.08 0.16 -0.08 0.2 c0 0.44 0.24 0.96 0.24 1.12 c0 0.12 -0.08 0.2 -0.08 0.28 c0 0.16 0.08 0.36 0.08 0.48 c-0.12 0.16 -0.36 0.32 -0.56 0.32 c-0.16 0 -0.28 -0.04 -0.32 -0.12 c-0.08 0.08 -0.12 0.08 -0.16 0.08 c-0.24 0 -0.4 -0.36 -0.64 -0.36 l-0.12 0.08 c-0.68 0 -0.8 -1.56 -0.8 -1.84 c0 -0.12 0.04 -0.44 0.12 -0.56 c0.04 0.2 0.36 0.28 0.36 0.48 s-0.08 0.48 -0.08 0.76 c0 0.2 0.04 0.36 0.16 0.48 l0.2 -0.04 c-0.08 -0.08 -0.16 -0.4 -0.16 -0.56 c0 0 0.08 -0.12 0.08 -0.16 c0 -0.16 -0.2 -0.56 -0.2 -0.8 c0 -0.36 0.12 -0.76 0.12 -1.12 c0 -0.2 -0.08 -0.4 -0.08 -0.6 c0 -0.32 0.24 -0.56 0.24 -0.88 l0.04 0 c0.08 0 0.16 0.4 0.16 0.68 c0 0.16 -0.04 0.24 -0.04 0.28 l0 1.24 c0.08 -0.24 0.24 -0.48 0.24 -0.72 l-0.12 -0.16 c0 -0.08 0.12 -0.16 0.12 -0.28 c-0.12 -0.04 -0.12 -0.12 -0.12 -0.2 c0 -0.32 0.2 -0.8 0.32 -0.96 c-0.08 -0.04 -0.16 -0.16 -0.16 -0.28 c0 -0.32 0.16 -0.68 0.2 -1 c-0.04 -0.16 -0.08 -0.32 -0.08 -0.48 c0 -0.08 0 -0.2 0.04 -0.32 c0 -0.16 0 -0.76 0.2 -0.84 c-0.08 -0.12 -0.12 -0.2 -0.12 -0.28 c0 -0.12 0 -0.24 0.12 -0.32 c0 -0.24 -0.08 -0.44 -0.08 -0.64 s0.08 -0.4 0.2 -0.68 l0.04 0.04 c0.12 0 0.16 -0.16 0.16 -0.28 s-0.16 -0.2 -0.16 -0.36 c0 -0.4 0.16 -0.84 0.4 -1.16 c0 -0.2 -0.04 -0.44 -0.04 -0.6 c0 -0.28 0.68 -1.84 0.68 -2.4 c0 -0.16 -0.12 -0.24 -0.28 -0.32 c-0.2 0 -0.32 0.52 -0.36 0.64 l0 0.08 c0 0.28 -0.4 0.84 -0.4 1.28 c0 0.08 0.12 0.16 0.12 0.24 c-0.04 0.12 -0.16 0.4 -0.28 0.4 l-0.12 -0.12 c0 -0.2 0.12 -0.6 0.2 -0.76 l-0.08 -0.16 c-0.08 0.12 -0.28 0.32 -0.28 0.44 c0 0.04 0.08 0.04 0.08 0.08 c-0.04 0.08 -0.16 0.12 -0.16 0.24 c0 0.04 0.04 0.12 0.04 0.16 s-0.04 0.08 -0.08 0.16 l0.16 0.36 c0.08 -0.08 0.12 -0.16 0.24 -0.16 l0 0.16 c0 0.08 0.04 0.16 0.08 0.24 c0 0.08 -0.08 0.16 -0.2 0.16 c-0.04 -0.08 -0.08 -0.2 -0.16 -0.24 c0 0.12 -0.08 0.2 -0.28 0.28 l-0.24 -0.2 c0.04 -0.08 0.04 -0.08 0.04 -0.12 c0 -0.12 -0.12 -0.12 -0.12 -0.28 l0.04 0 l-0.04 -0.04 l0.08 -0.12 l-0.2 -0.28 l-0.08 0.12 c0 0.12 0.04 0.24 0.2 0.32 c-0.56 0.36 -1.04 0.88 -1.36 1.36 l0 -0.04 c-0.24 0 -0.4 1.08 -0.8 1.08 c-0.08 0 -0.16 -0.04 -0.2 -0.04 l-0.16 0.12 c-0.32 0.08 -0.84 0.56 -0.96 0.56 c-0.6 1.04 -1.52 1.72 -2.16 2.6 l0 0.08 c0 -0.04 -0.12 0.04 -0.2 0.08 l-0.32 0.24 c-0.36 0.2 -0.84 0.48 -1.28 0.48 c-2.24 0 -1.72 -0.2 -2.8 -1.72 c0.12 -0.24 0.2 -1.44 0.4 -1.52 c0.12 0.04 0.16 0.04 0.2 0.04 c0.64 0 0.6 -1.44 1 -1.84 c0 -0.24 -0.36 -0.24 -0.36 -0.52 l0 0 c0 -0.52 0.96 -1.2 1.24 -2.36 c0.12 -0.64 1.12 -1.96 1.64 -2.44 c0.24 -0.76 1.16 -0.8 1.96 -0.8 l0.48 0 c0.72 0 1.56 0.16 1.72 0.84 l-0.04 0.04 c0 0.16 0.24 0.24 0.24 0.4 c0 0.48 0.12 0.96 0.12 1.44 c0 0.64 -1.12 1.16 -1.72 1.16 c-0.16 0 -0.32 -0.04 -0.36 -0.2 c0.2 -0.08 0.2 -0.24 0.2 -0.48 l0 -0.2 c0 -0.12 0 -0.2 0.04 -0.28 c-0.04 -0.24 -0.2 -0.48 -0.28 -0.64 c-0.12 0 -0.2 0.04 -0.32 0.12 l0 0.04 l-0.24 0.32 c-0.36 0.48 -0.48 1.4 -1.12 1.76 l-0.04 0.12 l-0.56 0.72 c0 0.52 -0.84 1.32 -0.84 1.72 l0 0.16 c-0.16 0.36 -0.28 0.6 -0.56 0.88 l0.2 0.12 c0 0.28 -0.2 0.64 -0.36 0.92 c0.04 0.04 0.12 0.16 0.2 0.2 c0.16 -0.2 0.4 -0.28 0.68 -0.28 l0.12 0.08 c0 0.08 -0.12 0.12 -0.16 0.12 l-0.12 0 c0.08 0.12 0.36 0.16 0.44 0.16 c0 0 0.24 -0.2 0.28 -0.24 c0 -0.04 0 -0.12 -0.12 -0.12 c-0.04 0 -0.08 0.04 -0.12 0.04 l0 -0.16 c0 -0.24 0.04 -0.32 0.28 -0.52 l0.08 0.08 l-0.08 0.2 l0.68 -0.28 c-0.04 -0.04 -0.04 -0.08 -0.04 -0.08 c0 -0.12 0.2 -0.12 0.2 -0.2 l-0.2 -0.16 c0 -0.08 0.04 -0.12 0.12 -0.12 c0.64 0 0.4 -1.2 1.24 -1.2 l0.04 0.04 l-0.04 0.2 l0.04 0.04 c0.04 0 1.44 -1.32 1.52 -1.48 c0.36 0 0.24 -0.88 1.12 -1.12 c0.2 -0.32 0.8 -0.48 0.8 -0.96 c0 -0.2 0.72 -0.32 0.72 -0.8 c0 -0.04 -0.08 -0.28 -0.08 -0.44 s0.08 -0.32 0.24 -0.32 c0.08 0.04 0.08 0.12 0.08 0.16 c0.32 -0.12 0.24 -0.28 0.36 -0.48 c-0.12 -0.2 -0.36 -0.48 -0.36 -0.68 c0 -0.16 0 -0.4 0.24 -0.4 l0.12 0.08 c-0.08 0.12 -0.08 0.24 -0.08 0.32 l0.08 0.16 l0.24 -0.08 c-0.04 -0.08 -0.16 -0.16 -0.16 -0.24 c0 -0.72 0.76 -1.48 0.76 -2.24 l0 -0.16 c0.24 0.04 0.56 0.08 0.72 0.32 c-0.04 0 -0.04 0.08 -0.04 0.12 s0.04 0.12 0.08 0.12 l0.04 0 c0.08 0 0.16 -0.12 0.2 -0.2 c0 -0.32 -0.4 -0.2 -0.4 -0.52 c0 -0.04 0.08 -0.16 0.08 -0.2 l-0.12 -0.12 c0 0.08 -0.04 0.16 -0.16 0.16 c-0.08 0 -0.24 -0.08 -0.28 -0.16 l0.12 -0.28 c0.12 0 0.2 0.08 0.32 0.08 c0.04 -0.04 0.16 -0.12 0.16 -0.16 c0 -0.12 -0.12 -0.12 -0.2 -0.12 l-0.12 0 c-0.08 0 -0.16 0 -0.16 -0.04 c0 -0.08 0.08 -0.12 0.16 -0.12 c0.04 0 0.32 0.04 0.4 0.08 l0.08 -0.08 c0 -0.12 -0.52 -0.24 -0.52 -0.48 c0 -0.32 0.16 -0.56 0.32 -0.84 l0 -0.28 c0 -0.04 0 -0.12 0.08 -0.32 c0 0 0.12 0 0.16 0.08 l-0.04 0.12 c0.04 0.12 0.04 0.24 0.12 0.28 c0.16 0 0.44 -0.2 0.44 -0.32 c0 -0.24 -0.52 -0.2 -0.52 -0.6 c0 -0.2 0.2 -0.28 0.28 -0.44 c0.24 0.04 0.12 0.2 0.2 0.32 c0.04 -0.12 0.32 -0.8 0.32 -0.84 s-0.08 -0.04 -0.12 -0.04 c-0.16 0 -0.16 0.12 -0.2 0.16 l-0.04 0 c0.08 -0.2 0.24 -0.64 0.24 -0.8 c0 -0.12 -0.2 -0.16 -0.2 -0.28 s0.24 -0.24 0.44 -0.76 z M119.55999999999999 33.12 c0.28 -0.56 0.4 -1.2 0.92 -1.64 l-0.08 0 c0 -0.04 0.12 -0.16 0.16 -0.16 l0.16 -0.32 c0.24 -0.32 0.48 -0.68 0.6 -1 l-0.08 -0.08 c-0.12 0.08 -1 1.6 -1.84 2.76 c0.04 0.04 0.04 0.08 0.04 0.12 c0 0.12 -0.12 0.16 -0.24 0.24 l0.2 0.16 z M131.79999999999998 21.76 l0.12 -0.04 c-0.12 -0.16 -0.12 -0.36 -0.24 -0.52 c-0.24 0.16 -0.04 0.48 -0.4 0.64 l0 0.08 c-0.04 0.08 -0.16 0.2 -0.16 0.28 c0 0.12 0.12 0.44 0.16 0.48 l-0.04 0.2 l0.04 0.08 c0.2 0 0.44 -0.52 0.44 -0.64 c0 -0.08 -0.12 -0.2 -0.2 -0.28 c0.04 -0.12 0.12 -0.28 0.28 -0.28 z M131.28 23.68 l0 -0.2 s-0.24 -0.24 -0.36 -0.32 l0 0.04 c0 0.08 0 0.12 0.04 0.2 c0 0.08 -0.04 0.2 -0.08 0.24 l0.04 0.08 c0 0.72 -0.52 0.64 -0.52 1.68 c0 0.12 0.04 0.16 0.04 0.28 c0.4 -0.36 0.36 -1.68 0.84 -2 z M119.16 33.519999999999996 c-0.2 0.16 -0.6 0.72 -0.6 0.84 c0 0.2 0.2 0.36 0.2 0.56 c-0.16 0 -0.32 0.08 -0.36 0.2 l-0.12 0 l-0.12 -0.04 c0.12 -0.24 0.64 -1.72 0.8 -1.72 z M128.64 27.439999999999998 l-0.04 0.04 l-0.12 -0.04 l0 0.08 c0.04 0 0.16 -1.64 0.48 -1.64 c0.04 0 0.04 0.12 0.04 0.16 c0 0.44 -0.32 0.96 -0.36 1.4 z M132 15.8 l-0.2 -0.04 c0.16 -0.36 0.32 -0.92 0.6 -1.24 l0.04 0.08 c0 0.2 -0.36 1 -0.44 1.2 z M128.12 36.6 c0 -0.16 0.12 -0.48 0.16 -0.6 l0.04 0 c0.16 0 0.16 0.12 0.16 0.2 s0 0.6 -0.2 0.6 c-0.08 0 -0.16 -0.04 -0.16 -0.08 l0 -0.12 z M132.51999999999998 19 c0 -0.04 -0.04 -0.16 -0.08 -0.2 c-0.08 0.28 -0.32 0.64 -0.32 0.92 l0.04 0 c0.08 0 0.36 -0.6 0.36 -0.72 z M128.16 38.32 c0.04 0.08 0.04 0.16 0.04 0.2 l0 0.4 c-0.12 0 -0.24 -0.12 -0.24 -0.28 s0.08 -0.24 0.16 -0.36 z M129.72 26.8 l0.32 -0.24 c-0.04 -0.12 -0.16 -0.24 -0.32 -0.24 l-0.08 0.08 c0 0.08 0.08 0.16 0.12 0.2 z M119.43999999999998 35.2 l-0.08 -0.12 l-0.04 0 c-0.12 0 -0.16 0.2 -0.16 0.32 l0.04 0.16 c0.12 -0.12 0.2 -0.24 0.24 -0.36 z M131.28 17.6 l-0.08 0 c0.04 -0.2 0.08 -0.4 0.24 -0.56 l0.08 0.04 c0 0.2 -0.08 0.4 -0.24 0.52 z M131.6 16.72 l-0.04 0 c0 -0.16 0 -0.44 0.24 -0.44 c-0.04 0.16 0 0.4 -0.2 0.44 z M130.39999999999998 23.12 c-0.04 0.08 -0.12 0.16 -0.12 0.28 c0 0.04 0.04 0.08 0.08 0.12 c0.12 -0.04 0.12 -0.2 0.12 -0.32 z M128.28 37.6 c-0.04 0.2 -0.16 0.32 -0.2 0.52 l-0.04 -0.08 c0 -0.16 0.08 -0.32 0.08 -0.48 c0 0 0.16 0 0.16 0.04 z M127.75999999999999 37.2 l-0.04 0 c0.04 -0.12 0.16 -0.12 0.24 -0.12 s0.12 0.04 0.16 0.04 l0.04 0.08 l-0.32 0.04 z M131.92 20.72 l0.04 -0.08 c-0.08 -0.08 -0.2 -0.12 -0.32 -0.12 l0 0.08 l0.16 0.12 l0.12 0 z M128.64 33.16 l0.04 0 c-0.04 0.2 -0.04 0.36 -0.04 0.52 c-0.04 0 -0.08 0 -0.08 -0.08 s0.04 -0.4 0.08 -0.44 z M129 25.72 l-0.04 -0.04 c0.04 -0.12 0 -0.32 0.08 -0.48 c0 0.08 0 0.16 0.04 0.2 c0 0.12 0 0.24 -0.08 0.32 z M131.2 20.16 c0 0.08 0.08 0.12 0.12 0.16 l0.12 -0.04 c0 -0.04 0 -0.2 -0.16 -0.2 z M128.28 42.2 l0 -0.12 l0 -0.12 c-0.04 -0.04 -0.08 -0.04 -0.12 -0.04 c0 0.08 0 0.24 0.04 0.32 z M128.44 34.64 c0 0 0.04 -0.08 0.04 -0.12 c0.12 0 0.08 0.12 0.12 0.16 l-0.32 0.12 z M124.67999999999999 32.92 l0.16 -0.16 l0.12 0.12 c-0.08 0.08 -0.2 0.08 -0.24 0.16 z M127.67999999999999 35.36 l-0.08 -0.12 l0.08 -0.16 c0.04 0.04 0.08 0.08 0.08 0.12 z M118.27999999999999 35.8 c0.08 0 0.16 -0.04 0.16 -0.04 l0 -0.12 c-0.08 0 -0.16 0.08 -0.16 0.12 l0 0.04 z M118.96 35.12 l0.24 0 c-0.04 -0.08 -0.16 -0.16 -0.24 -0.16 l0 0.16 z M127.44 30.16 l-0.04 0 l0.04 -0.16 l0.16 0.04 c0 0.08 -0.04 0.12 -0.16 0.12 z M129.72 26.96 l0 -0.16 l-0.16 0.04 l0 0.08 c0 0.04 0.08 0.04 0.16 0.04 z M126.52 30.92 c0 -0.12 0 -0.24 0.2 -0.24 c0 0.12 -0.04 0.24 -0.2 0.24 z M123.55999999999999 34.64 l-0.08 -0.16 l-0.12 0.12 l0.04 0.12 z M127.55999999999999 31.119999999999997 c0 -0.08 -0.12 -0.16 -0.16 -0.16 l-0.04 0.08 l0.16 0.08 l0.04 0 z M128.95999999999998 30.439999999999998 l-0.04 -0.08 l-0.08 0.04 l0 0.16 s0.12 -0.08 0.12 -0.12 z M128.56 34.32 c-0.08 0 -0.08 -0.12 -0.08 -0.16 c0.04 0 0.12 0 0.12 0.08 c0 0.04 0 0.08 -0.04 0.08 z M128.23999999999998 35.4 l0.08 0.08 c0 0.08 -0.04 0.08 -0.08 0.12 l-0.08 -0.16 z M120.99999999999999 36.76 l-0.08 -0.08 l-0.12 0.04 l0.12 0.12 z M127.32 39.6 l-0.04 -0.04 l0.08 -0.16 l0.04 0.04 z M132 20.32 l0.04 -0.2 l-0.04 -0.04 l-0.04 0.2 z M129.88 29.52 l0 0.16 l-0.12 -0.08 c0 -0.08 0.04 -0.08 0.12 -0.12 l0 0.04 z M131.79999999999998 18.48 l0.16 0.08 l0.04 -0.08 l-0.2 0 z M130.39999999999998 28.6 l0.04 -0.04 l-0.08 -0.08 l0 0.04 s0 0.08 0.04 0.08 l0 0 z M126.27999999999999 31.28 l-0.12 0.04 c0.04 -0.04 0.04 -0.08 0.08 -0.16 z M127.35999999999999 40.48 c0 0.04 -0.04 0.04 -0.08 0.04 l-0.08 0 c0.04 -0.04 0.04 -0.08 0.08 -0.12 z M128.07999999999998 32.76 l-0.04 0.04 l-0.08 -0.08 l0 -0.04 l0 0.04 s0.08 0.04 0.12 0.04 z M127.79999999999998 35.44 l0.16 -0.04 l0 0.04 l-0.08 0.04 c-0.04 0 -0.04 -0.04 -0.08 -0.04 z M123.19999999999999 34.88 l0.04 -0.08 c-0.08 0 -0.08 0 -0.08 0.04 z M119.63999999999999 34.480000000000004 c0 -0.12 0 -0.08 -0.08 -0.16 c0 0.04 0 0.12 0.04 0.16 l0 0 l0.04 0 z M124.07999999999998 34.480000000000004 l0.04 0 l-0.04 -0.08 l-0.04 0.08 l0.04 0 z M127.67999999999999 35.8 l-0.04 -0.04 c0.04 -0.04 0.04 -0.08 0.04 -0.12 c0 0.04 0 0.12 0.04 0.12 z M129 28.08 l0.08 -0.08 l-0.04 -0.04 c0 0.04 -0.04 0.04 -0.04 0.08 l0 0.04 z M129.32 28.28 c0 -0.04 0.04 -0.04 0.04 -0.04 l-0.08 0 l0 0 s0 0.04 0.04 0.04 z M124.75999999999999 34.6 l0.08 -0.08 l-0.08 -0.04 l0 0.08 l0 0.04 z M129.07999999999998 25.2 l-0.04 0 l-0.04 -0.04 l0.04 -0.04 z M127.75999999999999 37.48 l-0.08 0.04 c0 -0.04 0 -0.04 0.04 -0.08 z M127.96 41.44 l0.04 0 c0 -0.04 -0.04 0 -0.04 -0.08 l-0.28 0.04 z M127.35999999999999 39.04 l-0.04 0.04 c0 -0.04 0 -0.04 -0.04 -0.04 c0 -0.04 0 -0.04 0.04 -0.04 c0 0.04 0 0.04 0.04 0.04 z M130.23999999999998 28.6 l0 0.04 l0.12 -0.04 l-0.12 0 z M131.35999999999999 19.04 l-0.04 -0.04 c0 0.04 0 0.08 0.04 0.08 l0.08 -0.04 l-0.08 0 z M127.27999999999999 39.88 l0.04 -0.08 l0 -0.04 l0 0.04 l0 0.12 c-0.04 0 -0.04 -0.04 -0.04 -0.04 z M126.67999999999999 31.16 l0.04 -0.04 l0 0.12 z M127.63999999999999 40.68 l0 0.04 l-0.04 0 z M121.79999999999998 35.96 l0 0.04 l0.04 -0.04 l-0.04 0 z M131.12 17.84 l0.04 0.04 c-0.04 0 -0.04 -0.04 -0.04 -0.04 l0 0 z M128.28 29.28 l0 -0.04 l0 0.04 z M132.23999999999998 37.6 l0.04 0 c0.12 -0.92 0.48 -2 0.48 -2.92 c0 -0.28 0.24 -0.32 0.32 -0.52 l-0.12 -0.28 c0.04 -0.12 0.16 -0.24 0.32 -0.36 l-0.16 -0.28 c0.04 -0.32 0.24 -0.28 0.32 -1 c0.04 -0.16 0.24 -0.28 0.28 -0.48 l-0.12 -0.2 c0.16 -1.2 1.84 -4.72 1.84 -5.4 c0 -0.28 0.16 -0.48 0.52 -0.48 c0.76 0 1.52 0.56 1.52 1.28 c0 0.56 -0.52 0.96 -0.52 1.28 c-0.12 0.88 -0.64 1.6 -0.88 2.44 c-0.08 0.2 -0.56 1.84 -0.72 1.96 l-0.04 0.24 l-0.12 0.2 c0 0.12 0.04 0.24 0.04 0.32 c0 0.12 -0.24 0 -0.24 0.2 l0.04 -0.04 l0.16 0.16 c-0.04 0.16 -0.16 0.4 -0.32 0.52 c0 0.12 0.12 0.08 0.12 0.2 c0 0.72 -0.4 1.64 -0.52 2.36 l0 0.12 c0 0.12 -0.2 0.28 -0.2 0.36 c0 0.12 0.08 0.24 0.08 0.32 s0 0.08 -0.04 0.12 l0.12 0.08 c0.4 0 1.72 -1.64 2 -2.04 c0.68 -1.12 4.76 -5.32 4.88 -5.64 c0.08 -0.4 0.56 -0.84 1.04 -0.84 c0.08 0 0.08 0.24 0.08 0.4 l0 0.24 c0 0.12 -0.28 0.32 -0.28 0.56 c0 0 0 0.04 0.04 0.08 c-0.12 0.64 -4.32 4.32 -5.12 5.16 c-0.4 0.4 -0.72 0.92 -1.04 1.36 l0.04 0.08 c0.88 0 1.96 -2.6 3 -3.12 l0.04 0.08 c-0.04 0.36 -2 3.24 -2.4 3.72 c-0.64 0.8 -1.6 1.68 -2.56 1.68 c-0.6 0 -1.2 -0.32 -1.56 -0.72 l0 0 c-0.4 -0.32 -0.2 -0.76 -0.36 -1.2 z M138.32 24.4 c-0.28 0 -0.32 -0.32 -0.84 -0.32 c-0.4 0 -0.68 -0.16 -0.68 -0.6 c0 -0.16 0 -0.36 0.12 -0.48 c0 -0.04 -0.04 -0.08 -0.04 -0.12 c0 -0.28 0.44 -0.48 0.68 -0.48 c0.72 0 1.48 0.56 1.48 1.24 c0 0.36 -0.32 0.76 -0.72 0.76 z M133.92 36.96 l0.04 -0.08 l-0.04 -0.16 l-0.12 0.12 z M133.79999999999998 37.52 l-0.04 -0.04 c-0.04 0.04 -0.08 0.04 -0.16 0.08 l0.12 0.08 z M145.59999999999997 28.560000000000002 l0.08 0.04 c0.08 -0.16 0.64 -0.4 0.68 -0.56 l-0.08 -0.12 c0.04 -0.32 0.64 -1.32 0.92 -1.4 l-0.04 -0.04 c0 -0.2 0.28 -0.32 0.28 -0.6 l-0.04 -0.04 c0.12 -0.32 0.28 -0.64 0.56 -0.84 l-0.16 -0.12 c-0.32 0 -1.16 1.12 -1.44 1.32 c-0.04 -0.04 -0.12 -0.12 -0.12 -0.2 c0 -0.12 0.64 -0.84 0.72 -0.84 c0.04 0 0.08 0.04 0.12 0.04 c0.12 -0.32 0.48 -0.68 0.84 -0.68 l0.76 0.36 c0.36 0.16 0.96 0.44 1.4 0.44 l0.04 0 c0.52 0.52 0.92 1.16 1.28 1.8 c-0.04 0.04 -0.04 0.12 -0.04 0.16 c0 0.36 0.16 1 0.16 1.28 c0 1.08 -0.4 1.88 -0.6 2.88 l0.04 0.08 c-0.04 0.68 -1.08 1.48 -1.08 2.04 c0 0.12 -0.32 0.28 -0.4 0.44 c0 0.28 -2.24 1.92 -2.56 2.32 c0 0.24 -1.08 0.72 -1.6 0.72 c-0.04 0 -0.16 -0.04 -0.24 -0.04 c-0.2 0.16 -0.64 0.44 -0.88 0.44 l-0.12 -0.08 c-0.36 0.08 -0.88 -0.04 -1.04 0.24 c0.04 0.08 0.04 0.16 0.04 0.28 c0 0.28 -0.08 0.6 -0.08 0.88 l-0.32 0.6 c0 0.08 0.04 0.2 0.04 0.32 c0 0.8 -1 2.12 -1 2.92 c0 0.04 0.04 0.08 0.04 0.16 c-0.24 0.28 -0.12 0.6 -0.28 0.88 c0 -0.08 -0.56 2.64 -0.92 2.64 s-1.04 -0.44 -1.28 -0.44 c-0.48 -0.2 -0.44 -0.44 -0.68 -0.8 c0.12 -0.2 0.2 -0.76 0.2 -0.96 c0.36 -0.68 0.68 -1.56 0.68 -2.28 c0.2 -0.44 0.44 -2.52 0.72 -2.68 c0 0.32 -0.08 0.56 -0.08 0.84 c0.04 -0.08 0.28 -0.52 0.28 -0.56 c0 -0.12 0 -0.12 -0.04 -0.2 c0.04 -0.32 0.28 -0.8 0.28 -1.08 c0 -0.04 -0.04 -0.12 -0.08 -0.12 c-0.04 0.08 -0.12 0.16 -0.2 0.16 l-0.04 0 s0.16 -0.28 0.16 -0.44 l0 -0.08 c0.24 0 0.08 0.24 0.24 0.24 c0.08 -0.08 0.12 -0.48 0.12 -0.6 l-0.12 0 l0.04 0.04 l-0.2 0.16 l-0.04 -0.12 c0.08 -0.32 0.28 -1.8 0.48 -1.92 c-0.04 -0.12 -0.04 -0.2 -0.04 -0.32 l0.12 -0.48 c0.36 -1.2 0.68 -2.68 0.8 -4 l0 0.04 c0 -0.16 0.04 -0.68 0.24 -0.8 c0.16 -0.6 0.04 -1.16 0.48 -1.72 l0 0.04 l0 -0.04 l0.08 -0.4 c0.04 -0.2 0.28 -1.08 0.52 -1.08 c0.76 0 1.44 0.64 1.44 1.36 c0 0.2 -0.08 0.48 -0.16 0.68 l0.08 0.2 c-0.12 0.36 -0.28 0.88 -0.28 1.24 l0.04 0.08 c0 0.2 -0.2 0.32 -0.2 0.56 c0 0.12 0.16 0.24 0.16 0.36 s-0.32 0.6 -0.36 0.72 l0 0.04 c0 0.4 -0.28 0.8 -0.28 1.28 l0.08 -0.12 c0.32 -1 0.72 -1.64 1.48 -2.56 l-0.16 -0.04 l-0.08 0 l-0.04 -0.12 c0 -0.2 0.48 -0.24 0.48 -0.48 c0 -0.08 -0.24 -0.08 -0.36 -0.08 c0.56 -0.08 0.68 -0.8 0.68 -1.16 c-0.08 0 -0.2 0 -0.28 0.04 c0 -0.08 0.04 -0.12 0.16 -0.12 z M149.15999999999997 27.92 c0 -0.04 -0.2 -2.08 -0.36 -2.08 c-0.04 0 -1.88 1.64 -2.12 3 c-0.56 0.52 -0.76 1.32 -1.2 1.92 l0 0.08 c-0.04 0.28 -0.24 1.2 -0.56 1.2 c-0.04 0 -0.04 0 -0.04 0.04 c0 0 0.04 0.04 0.04 0.08 c0 0.2 -0.32 0.32 -0.32 0.52 c0 0.04 0.12 0.2 0.16 0.2 c0 0.08 -0.2 0.36 -0.2 0.56 c0 0.16 -0.76 1.08 -0.76 1.4 c0 0.28 0.28 0.2 0.28 0.44 c0 0.16 -0.24 0.08 -0.24 0.16 s0.04 0.08 0.12 0.08 c0.24 -0.16 0.48 -0.28 0.8 -0.4 l0.08 0 c-0.08 0.44 -0.76 0.48 -0.84 0.92 c0.64 0 0.84 -0.96 2.04 -1.48 c0.32 0 1.08 -1.24 1.52 -1.48 c0.24 -0.48 0.48 -0.96 0.76 -1.44 l-0.04 -0.32 c0 -0.08 0.24 -0.56 0.36 -0.68 c0.36 -0.88 0.52 -1.8 0.52 -2.72 z M147.15999999999997 32.88 c0.04 0 0.08 0.08 0.08 0.08 c0 0.16 -1.4 1.76 -2.24 2.08 l-0.08 -0.04 c0.24 -0.32 1.76 -1.56 2.24 -2.12 z M143.71999999999997 33.76 c0 0.12 -0.08 0.24 -0.16 0.32 l0 0.08 c0.28 0 0.72 -1.12 0.72 -1.36 c0 -0.08 -0.08 -0.12 -0.16 -0.16 c-0.04 0.08 -0.08 0.2 -0.08 0.28 c0 0 0.04 0 0.04 0.04 c0 0.08 -0.44 0.4 -0.44 0.6 z M141.27999999999997 35.28 l0 -0.4 c-0.28 0 -0.24 0.88 -0.36 1.04 c0 0.04 0.04 0.12 0.04 0.16 c0 0.16 -0.04 0.32 -0.12 0.4 l0.08 0.08 c0.16 0 0.28 -1.08 0.36 -1.28 z M143.39999999999998 35.12 c0 -0.12 0.16 -0.32 0.16 -0.44 l-0.08 -0.04 l-0.24 0.44 c0.04 0.04 0.12 0.2 0.2 0.2 l0.04 0 z M147.43999999999997 32.56 l0.12 -0.12 c0 -0.16 0.2 -0.32 0.24 -0.44 l0.12 0.04 l-0.32 0.36 c0 0.08 -0.04 0.16 -0.08 0.2 c0 0 -0.08 0 -0.08 -0.04 z M144.99999999999997 28.52 l-0.04 0.04 c-0.08 -0.04 -0.16 -0.16 -0.16 -0.24 s0.08 -0.08 0.12 -0.08 s0.12 0.12 0.12 0.16 s-0.04 0.08 -0.04 0.12 z M145.43999999999997 27.560000000000002 c-0.04 -0.08 -0.08 -0.12 -0.08 -0.2 s0.08 -0.16 0.12 -0.24 l0.12 0.08 c0 0.12 -0.08 0.24 -0.16 0.36 z M141.63999999999996 33.76 l-0.12 -0.12 c-0.04 0.16 -0.08 0.32 -0.2 0.44 l0.04 0.12 z M141.27999999999997 34.84 c0.08 -0.04 0.12 -0.16 0.12 -0.24 l-0.08 -0.16 l-0.04 0.04 l0 0.36 z M140.91999999999996 36.92 l0 -0.12 l-0.04 -0.12 l-0.12 0.04 c0 0.04 0 0.28 0.08 0.28 z M140.43999999999997 38.44 c0 0.16 -0.04 0.16 -0.2 0.2 l0 -0.12 c0 -0.04 0 -0.2 0.12 -0.2 z M141.87999999999997 32.16 c0.04 -0.08 0.04 -0.16 0.04 -0.24 l-0.12 0.16 s0 0.12 0.04 0.12 z M145.99999999999997 26.759999999999998 l-0.12 0 c0.16 -0.12 0.12 -0.16 0.28 -0.24 c0 0.12 -0.12 0.16 -0.16 0.24 z M144.55999999999997 31.72 l-0.12 0.08 l0.12 0.12 l0 -0.2 z M146.03999999999996 26.28 c0.04 0.04 0.08 0.12 0.12 0.16 c-0.12 0 -0.16 0 -0.16 -0.12 z M148.67999999999998 32.519999999999996 c0.04 -0.04 0.12 -0.08 0.12 -0.12 l-0.08 0 c-0.04 0 -0.04 0.08 -0.04 0.12 l0 0 z M145.47999999999996 29.64 l0 0.04 c0.04 0 0.16 -0.04 0.16 -0.08 l-0.04 -0.08 c-0.08 0 -0.12 0.04 -0.12 0.12 z M149.19999999999996 30.759999999999998 c0.04 -0.08 0.08 -0.12 0.12 -0.16 c-0.12 0 -0.12 0.04 -0.16 0.16 l0.04 0 z M148.11999999999998 31.52 l0 0.12 l-0.08 -0.04 z M141.63999999999996 36.44 l0.04 -0.12 l-0.04 -0.04 c0 0.08 0 0.12 -0.08 0.16 l0.08 0 z M146.23999999999998 27.28 l0.04 0 c0 0.04 -0.04 0.08 -0.08 0.08 l0 0 z M146.71999999999997 26.560000000000002 l0 -0.04 l0.04 -0.04 l0.04 0 z M140.19999999999996 38.92 l0 0.2 l0 -0.2 z M143.55999999999997 34.4 l0.04 -0.04 c0 -0.04 -0.04 -0.04 -0.04 -0.04 l-0.04 0 z M148.55999999999997 32.08 c0.08 0 0.08 -0.04 0.12 -0.08 c-0.04 0.04 -0.12 0.04 -0.12 0.08 z M146.47999999999996 26.96 l-0.04 0.08 l-0.08 -0.04 c0.08 -0.04 0.08 -0.04 0.12 -0.04 z M141.19999999999996 38.48 l-0.12 -0.08 l0 0.08 l0.12 0 z M146.19999999999996 28 c0.04 0 0.04 -0.04 0.08 -0.08 c0 0.04 -0.04 0.08 -0.08 0.08 z M143.99999999999997 36.08 l-0.08 0 l0.08 0 z M141.47999999999996 36.72 l0 -0.04 l-0.04 0 c0 0.04 0 0.04 0.04 0.04 z M146.91999999999996 27 l0 0.08 l0 -0.04 l0 -0.04 z M140.63999999999996 40.44 l0 -0.04 l0 0.04 z M146.15999999999997 26.48 l0.04 0 l-0.04 0 l0 0 z M149.15999999999997 31.64 c0.04 0 0.04 0 0.04 -0.04 c-0.04 0 -0.04 0 -0.04 0.04 z M144.79999999999998 28.84 c-0.04 0 -0.04 0 -0.04 0.04 c0 -0.04 0.04 -0.04 0.04 -0.08 l0 0.04 z M151.47999999999996 37.12 l-0.08 -0.28 c0.28 -0.52 0.28 -1.12 0.48 -1.68 c0.36 -0.24 0.32 -0.8 0.44 -1.16 c0.24 -0.48 0.72 -0.96 0.88 -1.44 l0 0.08 l0.2 -0.28 c0 -0.44 0.6 -0.72 0.6 -0.88 c0 -0.36 -1.08 -1.4 -1.24 -1.8 c-0.16 -0.44 -0.28 -0.96 -0.48 -1.4 c0 -0.04 0.04 -0.04 0.04 -0.08 c0 -0.24 -0.12 -0.44 -0.12 -0.68 c0 -0.64 0.64 -1.2 1.48 -1.2 c0.24 0 0.48 0.08 0.72 0.12 c0.04 0 0.08 -0.04 0.16 -0.04 c1.48 0 2.24 1.44 2.64 1.44 c0.48 0 0.92 -0.08 1.48 -0.08 c0.32 0 1 0.16 1 0.56 c0 1.2 -1.4 1.36 -1.4 1.68 c0.04 0.12 0.04 0.2 0.04 0.32 l0 0.16 c0.6 0.4 0.88 1.24 0.88 1.88 l0 0.2 l0.16 -0.16 c0.28 0 0.28 1.04 0.28 1.24 l0 0.08 c-0.56 2.84 -2.52 5.88 -5.12 5.88 c-0.64 0 -1.68 0 -2.12 -0.48 c-0.44 -0.44 -0.96 -1 -0.96 -1.64 c0 -0.12 0 -0.24 0.04 -0.36 z M157.67999999999995 32.72 l-0.08 -0.12 l-0.04 0.04 c-0.12 -0.44 -0.32 -0.88 -0.48 -1.32 l-0.28 -0.64 l-0.08 -0.08 l0.04 -0.04 c-0.16 0 -1.12 1.92 -1.44 2.2 l-0.08 -0.2 l-0.28 0.48 s-0.04 0.2 -0.08 0.2 l0 -0.04 l-0.08 0.12 l0.04 0.04 c0 0.12 -0.24 0.16 -0.32 0.28 c0 0.04 0.04 0.12 0.04 0.2 c0 0.48 -0.52 1.48 -0.84 1.96 l-0.28 0.6 c0 0.16 0.08 0.32 0.08 0.48 c0 0.36 -0.32 0.48 -0.32 0.56 l0.2 0.2 c0 0.12 -0.08 0.28 -0.16 0.36 c0 0.32 0.04 0.64 0.48 0.64 c0.24 0 1.64 -0.8 1.84 -0.96 c1.12 -1.08 2.04 -2.6 2.04 -4.08 c0 -0.24 0.28 -0.52 0.28 -0.76 c0 -0.12 -0.04 -0.24 -0.04 -0.32 c-0.04 0.04 -0.08 0.16 -0.16 0.2 z M154.11999999999995 27.119999999999997 c-0.56 0 -0.84 1.28 -0.84 1.64 c0 0.8 0.4 1.88 0.84 2.32 c0.64 -0.32 0.84 -1.6 1.12 -1.6 c0.12 -0.08 0.48 -0.64 0.48 -0.8 c0 -0.64 -1.32 -1.56 -1.6 -1.56 z M156.79999999999995 36.44 l0.04 0.04 l-0.12 0.08 l0.08 0.04 c0.6 0 0.72 -0.68 0.8 -0.68 l0 0.04 c0 -0.2 0.72 -0.84 0.8 -1.48 c0.04 -0.32 0.04 -0.68 0.28 -0.96 l-0.12 -0.04 c0 0.2 -0.44 0.56 -0.56 0.72 c-0.44 0.52 -0.6 1.56 -1.2 2.24 z M151.87999999999997 36.44 l0 0.24 l0.04 0.04 c0.44 -1.16 0.92 -2.8 1.64 -3.8 c-1 1.4 -1.2 2.84 -1.68 3.52 z M153.11999999999995 34.64 l0.04 0 c-0.36 0 -0.44 0.88 -0.64 1.12 l0.04 0.04 c0.2 -0.36 0.4 -0.76 0.56 -1.16 z M157.19999999999996 30.8 l0 0.08 c0 0.08 0 0.24 0.08 0.24 c0 -0.8 -0.24 -0.64 -0.28 -0.76 l-0.04 0.04 c0.04 0.16 0.12 0.32 0.24 0.4 z M157.55999999999997 31.759999999999998 c0 0 -0.04 0.08 -0.04 0.12 c0 0.16 0.08 0.28 0.12 0.44 c-0.04 0.04 -0.04 0.04 -0.04 0.08 l0.04 0 l0.16 -0.04 c-0.16 -0.36 -0.16 -0.68 -0.36 -0.92 c0 0.12 0 0.2 0.12 0.32 z M152.51999999999995 36.28 l-0.04 -0.16 c-0.16 0.12 -0.24 0.44 -0.24 0.6 l0.04 0.08 c0.04 -0.16 0.12 -0.36 0.24 -0.52 z M153.43999999999997 33.68 l0.04 0.08 c0.12 0 0.36 -0.56 0.4 -0.68 c-0.12 0.12 -0.44 0.56 -0.44 0.6 z M158.03999999999996 29.439999999999998 l0.08 -0.12 l-0.04 -0.16 c-0.08 0 -0.12 0.04 -0.12 0.12 s0 0.16 0.04 0.16 l0.04 0 z M154.35999999999996 31.84 l-0.04 -0.04 c-0.16 0.28 -0.28 0.52 -0.44 0.76 c0.28 -0.28 0.28 -0.4 0.48 -0.72 z M153.31999999999996 34.08 l0.08 -0.08 l0 -0.08 c0 0.2 -0.2 0.32 -0.28 0.48 c0.12 0 0.16 -0.24 0.2 -0.32 z M152.23999999999995 36.96 l-0.08 0.08 l0.04 0.16 c0.04 -0.08 0.04 -0.16 0.04 -0.24 z M155.03999999999996 30.8 l0.08 -0.08 l-0.08 -0.12 l0 0.2 z M154.55999999999997 31.52 l0 0.08 c0.04 -0.04 0.04 -0.12 0.12 -0.16 l-0.08 0 s-0.04 0.04 -0.04 0.08 z M154.31999999999996 32.480000000000004 l-0.04 0.08 l0.04 0.04 l0.08 -0.08 z M155.23999999999995 27.6 l-0.04 0 c0 0.04 0.08 0.12 0.12 0.12 c-0.04 -0.04 -0.08 -0.12 -0.08 -0.12 z M154.15999999999997 32.88 l0.08 -0.04 c0 -0.04 0 -0.12 -0.08 -0.12 l-0.08 0.04 z M158.63999999999996 31.72 l0.04 0.04 l0 -0.16 z M157.75999999999996 32.72 l0.04 0 l-0.04 0.12 l-0.08 -0.08 z M153.95999999999995 32.76 l0.08 -0.04 l-0.04 0 z M157.59999999999997 29.48 l0 -0.04 l0 0.12 l0 -0.08 z M155.67999999999995 28.08 c0 0.04 0 0.04 0.04 0.08 l0.04 -0.04 c0 -0.04 -0.04 -0.04 -0.08 -0.04 z M157.27999999999997 31.28 c0.08 0.04 0.08 0.04 0.12 0.04 l0 -0.04 l-0.12 0 z M157.67999999999995 32.72 c-0.04 0.04 -0.04 0.08 -0.04 0.12 l0.04 0.04 l0 -0.16 z M154.07999999999996 27.2 l0 0.04 c0 -0.04 0 -0.04 0.04 -0.04 l-0.04 0 z"/></g><g id="SvgjsG2043" featurekey="sloganFeature-0" transform="matrix(1.1907575623807058,0,0,1.1907575623807058,27.82603414911443,164.22071929448418)" fill="currentColor"><path d="M10.146 8.467 l-5.3711 0 l0 3.2031 l4.6387 0 l0 2.5488 l-4.6387 0 l0 5.7813 l-2.9492 0 l0 -14.111 l8.3203 0 l0 2.5781 z M20.595721875 20.19531 c-3.0957 0 -5.5176 -1.582 -5.5176 -5.1367 l0 -9.1699 l2.9297 0 l0 8.7695 c0 2.1484 1.1426 2.9492 2.5879 2.9492 c1.4551 0 2.6074 -0.81055 2.6074 -2.9492 l0 -8.7695 l2.9297 0 l0 9.1699 c0 3.5547 -2.4316 5.1367 -5.5371 5.1367 z M35.146525 17.4121 l4.4238 0 l0 2.5879 l-7.3535 0 l0 -14.111 l2.9297 0 l0 11.523 z M47.460978125 17.4121 l4.4238 0 l0 2.5879 l-7.3535 0 l0 -14.111 l2.9297 0 l0 11.523 z M67.43153125 5.888999999999999 l-4.6387 7.3535 l0 6.7578 l-2.9395 0 l0 -6.6895 l-4.668 -7.4219 l3.2422 0 l2.8809 4.8047 l2.8906 -4.8047 l3.2324 0 z M84.746121875 20.19531 c-3.0273 0 -5.3906 -1.4551 -5.8203 -4.1016 l3.0273 -0.69336 c0.19531 1.582 1.3574 2.4023 2.9102 2.4023 c1.1914 0 2.1387 -0.52734 2.1289 -1.7188 c-0.0097656 -1.3281 -1.5723 -1.748 -3.291 -2.2754 c-2.0703 -0.64453 -4.2871 -1.4063 -4.2871 -4.0039 c0 -2.627 2.1484 -4.1113 4.9805 -4.1113 c2.4805 0 4.9805 1.0059 5.5469 3.7109 l-2.832 0.70313 c-0.26367 -1.4063 -1.2109 -2.0215 -2.5391 -2.0215 c-1.1816 0 -2.1875 0.48828 -2.1875 1.6504 c0 1.084 1.3867 1.4453 2.9883 1.9238 c2.1289 0.64453 4.6484 1.4648 4.6484 4.2773 c0 2.998 -2.5098 4.2578 -5.2734 4.2578 z M103.633046875 5.888999999999999 l0 2.5781 l-3.3496 0 l0 11.533 l-2.9004 0 l0 -11.533 l-3.3691 0 l0 -2.5781 l9.6191 0 z M118.018046875 20 l-1.0254 -2.9102 l-5.9277 0 l-1.0254 2.9102 l-2.998 0 l5.1953 -14.111 l3.584 0 l5.1953 14.111 l-2.998 0 z M111.923846875 14.6387 l4.209 0 l-2.0996 -5.9863 z M132.109403125 20.19531 c-4.1504 0 -7.2168 -2.8223 -7.2168 -7.2559 s3.0664 -7.2461 7.2168 -7.2461 c3.1445 0 5.6641 1.6113 6.6699 4.2871 l-2.7344 0.99609 c-0.625 -1.6406 -2.1191 -2.5879 -3.9355 -2.5879 c-2.4316 0 -4.2969 1.6992 -4.2969 4.5508 s1.8652 4.5605 4.2969 4.5605 c1.8164 0 3.3105 -0.95703 3.9355 -2.5977 l2.7344 0.99609 c-1.0059 2.6758 -3.5254 4.2969 -6.6699 4.2969 z M152.256078125 20 l-4.3848 -5.9961 l-1.0352 0 l0 5.9961 l-2.9297 0 l0 -14.111 l2.9297 0 l0 5.5469 l0.99609 0 l4.4238 -5.5469 l3.5742 0 l-5.4688 6.748 l5.6348 7.3633 l-3.7402 0 z M169.004140625 8.467 l-5.2344 0 l0 3.2031 l4.6387 0 l0 2.5488 l-4.6387 0 l0 3.1934 l5.2344 0 l0 2.5879 l-8.1836 0 l0 -14.111 l8.1836 0 l0 2.5781 z M174.746121875 20 l0 -14.111 l5.1074 0 c4.502 0 6.7285 2.832 6.7285 7.0508 c0 4.2285 -2.2266 7.0605 -6.7285 7.0605 l-5.1074 0 z M177.675821875 17.4121 l2.0313 0 c2.5977 0 3.7891 -1.6211 3.7891 -4.4727 s-1.1914 -4.4727 -3.7891 -4.4727 l-2.0313 0 l0 8.9453 z"/></g></svg>